<?xml version="1.0" encoding="utf-8"?>
<!-- Generator: Adobe Illustrator 16.0.0, SVG Export Plug-In . SVG Version: 6.00 Build 0)  -->
<!DOCTYPE svg PUBLIC "-//W3C//DTD SVG 1.1//EN" "http://www.w3.org/Graphics/SVG/1.1/DTD/svg11.dtd">
<svg version="1.1" id="Capa_1" xmlns="http://www.w3.org/2000/svg" xmlns:xlink="http://www.w3.org/1999/xlink" x="0px" y="0px"
	 width="115.488px" height="62.069px" viewBox="0 0 115.488 62.069" enable-background="new 0 0 115.488 62.069"
	 xml:space="preserve">
<g>
	<path fill="#FFFFFF" d="M11.784,46.841c-0.307-0.202-0.661-0.302-1.055-0.302c-0.388,0-0.747,0.09-1.078,0.27
		c-0.291,0.158-0.558,0.387-0.803,0.685v-0.822H8.08v5.261h0.769v-1.943c0-0.677,0.032-1.143,0.093-1.389
		c0.1-0.382,0.303-0.699,0.611-0.959c0.311-0.256,0.654-0.384,1.045-0.384c0.342,0,0.611,0.083,0.818,0.247
		c0.207,0.162,0.348,0.406,0.424,0.738c0.047,0.191,0.072,0.587,0.072,1.179v2.511h0.77v-2.705c0-0.706-0.071-1.229-0.217-1.57
		C12.318,47.314,12.092,47.042,11.784,46.841z M18.18,49.133c0.001,0.639-0.035,1.062-0.098,1.245
		c-0.094,0.28-0.264,0.505-0.514,0.678c-0.247,0.17-0.551,0.257-0.91,0.257c-0.361,0-0.668-0.088-0.926-0.265
		s-0.431-0.415-0.522-0.721c-0.062-0.21-0.093-0.61-0.093-1.194v-2.462h-0.77v2.536c0,0.735,0.082,1.29,0.253,1.667
		c0.17,0.374,0.429,0.668,0.774,0.878c0.347,0.207,0.776,0.312,1.285,0.312c0.51,0,0.938-0.105,1.281-0.312
		c0.342-0.21,0.598-0.502,0.769-0.871c0.171-0.371,0.253-0.912,0.253-1.626v-2.584H18.18V49.133z M22.113,44.758h-0.77v1.913h-0.905
		v0.679h0.905v4.582h0.77V47.35h1.051v-0.679h-1.051V44.758z M26.311,46.539c-0.256,0-0.5,0.077-0.73,0.229
		c-0.197,0.129-0.382,0.31-0.558,0.545v-0.642h-0.784v5.261h0.784v-1.795c0-0.893,0.042-1.486,0.121-1.77
		c0.105-0.374,0.259-0.646,0.452-0.82c0.199-0.175,0.398-0.258,0.605-0.258c0.084,0,0.193,0.027,0.328,0.087l0.043,0.017
		l0.398-0.646l-0.048-0.025C26.71,46.602,26.504,46.539,26.311,46.539z M28.127,44.549c-0.16,0-0.305,0.061-0.42,0.177
		c-0.116,0.116-0.176,0.262-0.176,0.427c0,0.161,0.061,0.305,0.176,0.422c0.115,0.116,0.26,0.176,0.42,0.176
		c0.164,0,0.309-0.06,0.424-0.176c0.117-0.117,0.177-0.261,0.177-0.422c0-0.165-0.06-0.311-0.177-0.427
		C28.436,44.609,28.291,44.549,28.127,44.549z M27.745,51.932h0.771v-5.261h-0.771V51.932z M32.67,46.538
		c-0.866-0.001-1.567,0.334-2.085,0.995c-0.409,0.521-0.614,1.118-0.614,1.783c0,0.705,0.242,1.343,0.725,1.902
		c0.483,0.564,1.162,0.846,2.014,0.845c0.384,0,0.73-0.058,1.037-0.177c0.307-0.117,0.584-0.29,0.828-0.515
		c0.246-0.225,0.461-0.521,0.646-0.886l0.024-0.047l-0.65-0.344l-0.025,0.045c-0.202,0.334-0.388,0.574-0.556,0.718
		c-0.167,0.146-0.373,0.265-0.616,0.354c-0.243,0.088-0.489,0.133-0.747,0.133c-0.531,0-0.971-0.185-1.332-0.558
		c-0.349-0.361-0.533-0.818-0.557-1.381h4.635v-0.054c-0.006-0.713-0.198-1.315-0.58-1.795C34.283,46.88,33.562,46.537,32.67,46.538
		z M30.844,48.728c0.135-0.435,0.324-0.757,0.567-0.973c0.354-0.317,0.772-0.475,1.269-0.475c0.299,0,0.583,0.064,0.854,0.188
		c0.271,0.127,0.489,0.292,0.651,0.497c0.153,0.19,0.273,0.443,0.36,0.762H30.844z M40.667,46.841
		c-0.308-0.202-0.661-0.302-1.055-0.302c-0.388,0-0.747,0.09-1.077,0.27c-0.291,0.158-0.559,0.387-0.802,0.684v-0.821h-0.771v5.261
		h0.771v-1.943c-0.001-0.677,0.032-1.143,0.093-1.389c0.099-0.382,0.301-0.699,0.61-0.959c0.31-0.256,0.653-0.384,1.044-0.384
		c0.342,0,0.613,0.083,0.82,0.247c0.205,0.162,0.347,0.406,0.422,0.738c0.048,0.191,0.072,0.587,0.072,1.179v2.511h0.77v-2.705
		c0-0.706-0.07-1.229-0.217-1.57C41.202,47.314,40.975,47.042,40.667,46.841z M44.664,44.758h-0.771v1.913h-0.904v0.679h0.904v4.582
		h0.771V47.35h1.051v-0.679h-1.051V44.758z M52.214,49.354c-0.005-0.713-0.198-1.315-0.58-1.795
		c-0.532-0.679-1.255-1.021-2.146-1.021c-0.866-0.001-1.568,0.334-2.085,0.995c-0.41,0.521-0.613,1.118-0.613,1.783
		c0,0.705,0.242,1.343,0.723,1.902c0.484,0.564,1.16,0.846,2.014,0.845c0.383,0,0.731-0.058,1.038-0.177
		c0.306-0.117,0.583-0.29,0.828-0.515c0.247-0.225,0.461-0.521,0.646-0.886l0.022-0.047l-0.648-0.344l-0.026,0.045
		c-0.2,0.334-0.387,0.574-0.554,0.718c-0.169,0.146-0.374,0.265-0.617,0.354c-0.242,0.088-0.49,0.133-0.746,0.133
		c-0.533,0-0.973-0.185-1.333-0.558c-0.348-0.361-0.534-0.818-0.558-1.381h4.637L52.214,49.354z M47.662,48.728
		c0.133-0.435,0.323-0.757,0.566-0.973c0.354-0.317,0.773-0.475,1.268-0.475c0.299,0,0.582,0.064,0.855,0.188
		c0.271,0.127,0.488,0.292,0.65,0.497c0.154,0.19,0.274,0.443,0.361,0.762H47.662z M54.958,47.266c0.319,0,0.653,0.163,1.003,0.502
		l0.037,0.038l0.503-0.52l-0.038-0.036c-0.487-0.471-0.979-0.712-1.471-0.712c-0.42,0-0.773,0.135-1.051,0.403
		c-0.277,0.268-0.418,0.611-0.418,1.015c0,0.31,0.088,0.589,0.264,0.832c0.176,0.245,0.498,0.483,0.967,0.728
		c0.432,0.219,0.707,0.402,0.818,0.535c0.117,0.141,0.173,0.294,0.174,0.473c-0.001,0.215-0.086,0.398-0.263,0.562
		c-0.177,0.16-0.388,0.24-0.642,0.24c-0.363,0-0.707-0.179-1.039-0.555l-0.04-0.045l-0.485,0.553l0.025,0.035
		c0.184,0.233,0.414,0.42,0.691,0.551c0.276,0.132,0.569,0.198,0.874,0.198h0.005c0.456,0,0.844-0.153,1.147-0.456
		c0.308-0.301,0.462-0.678,0.462-1.111c0-0.311-0.09-0.594-0.271-0.844c-0.187-0.248-0.527-0.496-1.024-0.753
		c-0.402-0.207-0.665-0.389-0.78-0.532c-0.121-0.145-0.178-0.293-0.178-0.443c0-0.177,0.067-0.324,0.213-0.459
		C54.586,47.332,54.754,47.267,54.958,47.266z M65.586,47.513c-0.241-0.301-0.516-0.536-0.824-0.698
		c-0.352-0.184-0.742-0.276-1.174-0.276c-0.746,0-1.389,0.271-1.918,0.808c-0.531,0.537-0.797,1.188-0.797,1.942
		c0,0.769,0.264,1.429,0.789,1.966c0.524,0.537,1.164,0.811,1.907,0.81c0.417,0,0.804-0.086,1.157-0.261
		c0.314-0.155,0.601-0.378,0.859-0.666v0.795h0.761v-5.26h-0.761V47.513z M65.373,50.355c-0.172,0.304-0.413,0.545-0.73,0.723
		c-0.317,0.179-0.651,0.268-1.004,0.268c-0.352,0-0.678-0.089-0.984-0.269c-0.305-0.181-0.549-0.431-0.73-0.754
		s-0.271-0.661-0.271-1.015c0-0.356,0.089-0.693,0.27-1.016c0.181-0.32,0.422-0.567,0.725-0.743
		c0.305-0.178,0.635-0.266,0.996-0.266c0.561,0.002,1.027,0.195,1.412,0.586c0.382,0.39,0.573,0.873,0.573,1.457
		C65.628,49.71,65.543,50.053,65.373,50.355z M72.609,47.478c-0.285-0.314-0.58-0.547-0.889-0.694
		c-0.34-0.163-0.709-0.244-1.101-0.244c-0.474,0-0.926,0.122-1.351,0.367c-0.428,0.244-0.764,0.576-1.005,0.998
		c-0.241,0.42-0.362,0.875-0.362,1.359c0,0.486,0.116,0.932,0.349,1.338c0.231,0.405,0.562,0.73,0.987,0.97
		c0.424,0.239,0.879,0.36,1.363,0.36c0.412,0,0.803-0.087,1.17-0.259c0.323-0.151,0.604-0.362,0.838-0.629v0.119
		c0,0.563-0.066,0.97-0.193,1.21c-0.126,0.242-0.339,0.447-0.645,0.611c-0.301,0.163-0.672,0.248-1.118,0.248
		c-0.452,0-0.828-0.082-1.128-0.242c-0.301-0.159-0.545-0.402-0.738-0.736l-0.016-0.025h-0.832l0.033,0.075
		c0.189,0.408,0.395,0.723,0.623,0.939s0.521,0.387,0.879,0.515c0.357,0.129,0.762,0.191,1.209,0.191
		c0.611,0,1.137-0.129,1.576-0.391c0.439-0.263,0.75-0.637,0.929-1.123c0.129-0.346,0.191-0.878,0.192-1.604v-4.16h-0.771V47.478z
		 M72.103,50.666c-0.36,0.355-0.834,0.533-1.433,0.533c-0.594,0-1.066-0.181-1.436-0.54c-0.369-0.358-0.553-0.809-0.553-1.362
		c0-0.363,0.09-0.701,0.268-1.013c0.179-0.312,0.423-0.558,0.737-0.734s0.653-0.266,1.021-0.266c0.353,0,0.678,0.086,0.982,0.259
		c0.305,0.174,0.539,0.406,0.705,0.702s0.249,0.634,0.249,1.014C72.643,49.845,72.463,50.309,72.103,50.666z M76.951,46.539
		c-0.254,0-0.5,0.076-0.73,0.229c-0.195,0.129-0.381,0.31-0.557,0.543v-0.639h-0.783v5.26h0.783v-1.795
		c-0.002-0.893,0.041-1.486,0.121-1.77c0.104-0.374,0.258-0.648,0.453-0.818c0.198-0.177,0.397-0.26,0.604-0.26
		c0.084,0,0.193,0.027,0.33,0.087l0.042,0.018l0.398-0.647l-0.048-0.025C77.351,46.602,77.146,46.539,76.951,46.539z M79.055,44.278
		l-1.094,1.542h0.779l1.5-1.564h-1.171L79.055,44.278z M78.385,51.932h0.771v-5.261h-0.771V51.932z M85.351,50.462
		c-0.472,0.591-1.069,0.883-1.812,0.884c-0.406,0-0.77-0.09-1.094-0.269c-0.324-0.177-0.578-0.427-0.766-0.751
		c-0.186-0.322-0.279-0.666-0.279-1.032c0-0.563,0.201-1.038,0.606-1.432c0.405-0.396,0.909-0.591,1.527-0.593
		c0.772,0.002,1.37,0.293,1.816,0.883l0.029,0.04l0.611-0.381l-0.027-0.045c-0.157-0.263-0.35-0.48-0.577-0.654
		c-0.227-0.171-0.5-0.31-0.823-0.415c-0.322-0.105-0.656-0.158-1.004-0.158c-0.55,0-1.052,0.122-1.498,0.367
		c-0.448,0.244-0.8,0.585-1.056,1.02c-0.258,0.438-0.384,0.91-0.384,1.419c-0.001,0.755,0.274,1.401,0.821,1.927
		c0.547,0.529,1.238,0.793,2.064,0.793c0.537,0,1.019-0.104,1.441-0.312c0.424-0.208,0.764-0.504,1.014-0.883l0.029-0.045
		l-0.611-0.4L85.351,50.462z M90.068,46.538c-0.809,0-1.488,0.298-2.018,0.886c-0.483,0.532-0.727,1.166-0.727,1.893
		c0,0.731,0.257,1.375,0.768,1.923c0.511,0.55,1.174,0.825,1.977,0.825c0.801,0,1.463-0.275,1.973-0.825
		c0.51-0.548,0.767-1.191,0.767-1.923c0-0.729-0.242-1.365-0.726-1.898C91.553,46.832,90.875,46.538,90.068,46.538z M91.764,50.345
		c-0.176,0.314-0.412,0.558-0.711,0.726c-0.301,0.171-0.627,0.256-0.986,0.256s-0.686-0.085-0.986-0.256
		c-0.299-0.168-0.535-0.411-0.711-0.726c-0.178-0.313-0.266-0.65-0.266-1.015c0.001-0.567,0.193-1.042,0.58-1.441
		c0.387-0.398,0.844-0.594,1.383-0.595c0.534,0.001,0.992,0.196,1.381,0.595c0.388,0.399,0.58,0.874,0.582,1.441
		C92.029,49.694,91.94,50.031,91.764,50.345z M94.266,51.932h0.77V44.68h-0.77V51.932z M101.224,47.512
		c-0.241-0.303-0.517-0.536-0.823-0.698c-0.352-0.183-0.743-0.275-1.174-0.275c-0.746,0-1.389,0.271-1.92,0.808
		c-0.529,0.537-0.797,1.188-0.796,1.942c-0.001,0.769,0.265,1.429,0.79,1.967c0.524,0.536,1.165,0.81,1.907,0.809
		c0.417,0,0.804-0.087,1.157-0.262c0.314-0.154,0.6-0.376,0.858-0.664v0.794h0.761V46.67h-0.761V47.512z M101.011,50.355
		c-0.171,0.304-0.413,0.545-0.729,0.723c-0.318,0.178-0.652,0.268-1.006,0.268c-0.35,0-0.676-0.09-0.982-0.27
		c-0.306-0.18-0.548-0.43-0.73-0.754c-0.182-0.324-0.271-0.661-0.271-1.015c0-0.355,0.089-0.693,0.27-1.015
		c0.18-0.319,0.421-0.567,0.725-0.743c0.305-0.178,0.635-0.266,0.996-0.266c0.561,0.002,1.026,0.195,1.41,0.586
		c0.385,0.392,0.574,0.873,0.575,1.457C101.267,49.709,101.18,50.053,101.011,50.355z M105.213,48.899
		c-0.403-0.207-0.664-0.389-0.781-0.532c-0.121-0.146-0.178-0.293-0.178-0.443c0-0.176,0.068-0.324,0.213-0.459
		c0.145-0.133,0.313-0.198,0.518-0.199c0.319,0,0.654,0.163,1.002,0.501l0.039,0.038l0.5-0.519l-0.037-0.034
		c-0.488-0.472-0.979-0.713-1.47-0.713c-0.421-0.002-0.774,0.135-1.052,0.402s-0.418,0.611-0.416,1.015
		c0,0.31,0.087,0.589,0.261,0.831c0.177,0.246,0.499,0.484,0.969,0.729c0.432,0.219,0.707,0.402,0.819,0.535
		c0.115,0.14,0.172,0.294,0.172,0.473c0,0.215-0.085,0.398-0.263,0.562c-0.178,0.16-0.388,0.24-0.644,0.241
		c-0.361,0-0.704-0.179-1.037-0.555l-0.041-0.046l-0.484,0.552l0.027,0.036c0.182,0.233,0.412,0.418,0.689,0.551
		c0.277,0.132,0.57,0.199,0.875,0.199c0.457,0,0.846-0.153,1.152-0.456c0.307-0.304,0.463-0.679,0.461-1.112
		c0-0.311-0.091-0.594-0.271-0.844C106.05,49.404,105.709,49.156,105.213,48.899z"/>
	<g>
		<g>
			<path fill="#FFFFFF" d="M8.356,33.467L15.68,12.25c0.381-1.103,0.838-1.929,1.373-2.48c0.537-0.552,1.078-0.827,1.626-0.827
				c0.565,0,0.929,0.272,1.09,0.818s0.051,1.375-0.334,2.489l-7.323,21.217c-0.385,1.115-0.848,1.947-1.387,2.498
				c-0.541,0.551-1.094,0.827-1.658,0.827c-0.539,0-0.887-0.278-1.045-0.836C7.865,35.399,7.977,34.57,8.356,33.467z"/>
			<path fill="#FFFFFF" d="M32.194,28.25c-0.562,1.629-1.356,3.093-2.382,4.391c-1.026,1.298-2.221,2.314-3.588,3.049
				c-1.367,0.733-2.812,1.102-4.338,1.102c-1.828,0-3.164-0.502-4.006-1.507c-0.594-0.723-0.945-1.685-1.057-2.893
				c-0.109-1.205,0.031-2.378,0.425-3.517c0.228-0.662,0.582-1.228,1.061-1.698c0.478-0.473,0.962-0.708,1.45-0.708
				c0.396,0,0.669,0.183,0.815,0.55c0.147,0.368,0.193,0.913,0.139,1.635c-0.061,0.858-0.053,1.574,0.022,2.15
				c0.074,0.576,0.297,1.05,0.665,1.424c0.368,0.375,0.957,0.56,1.767,0.56c1.113,0,2.146-0.376,3.102-1.129s1.628-1.693,2.016-2.82
				c0.309-0.895,0.373-1.62,0.189-2.177c-0.183-0.558-0.52-0.983-1.014-1.276c-0.492-0.294-1.179-0.606-2.059-0.938
				c-1.176-0.453-2.107-0.983-2.796-1.589c-0.688-0.607-1.116-1.433-1.281-2.48s0.021-2.348,0.558-3.902
				c0.512-1.484,1.244-2.799,2.197-3.951c0.953-1.15,2.063-2.035,3.331-2.655c1.267-0.618,2.612-0.927,4.037-0.927
				c1.138,0,2.051,0.206,2.74,0.615c0.688,0.411,1.189,0.956,1.503,1.637c0.312,0.679,0.467,1.392,0.461,2.139
				c-0.004,0.747-0.129,1.476-0.374,2.187c-0.224,0.648-0.584,1.234-1.079,1.754c-0.496,0.52-0.98,0.78-1.452,0.78
				c-0.43,0-0.703-0.156-0.817-0.467c-0.117-0.312-0.183-0.825-0.198-1.534c0.014-1.018-0.117-1.811-0.393-2.38
				c-0.275-0.57-0.936-0.854-1.98-0.854c-0.97,0-1.858,0.31-2.666,0.928c-0.808,0.619-1.362,1.364-1.662,2.231
				c-0.186,0.54-0.245,1.005-0.178,1.396c0.067,0.392,0.229,0.729,0.485,1.011c0.256,0.282,0.539,0.501,0.847,0.661
				s0.825,0.393,1.554,0.698c0.922,0.356,1.734,0.747,2.434,1.176s1.24,0.949,1.623,1.562c0.383,0.612,0.578,1.387,0.588,2.323
				S32.663,26.892,32.194,28.25z"/>
			<path fill="#FFFFFF" d="M45.502,33.284l0.281-3.38h-7.535l-2.078,3.454c-0.81,1.347-1.42,2.257-1.826,2.727
				c-0.406,0.472-0.888,0.708-1.444,0.708c-0.474,0-0.804-0.251-0.991-0.753c-0.19-0.503-0.174-1.07,0.045-1.709
				c0.127-0.367,0.299-0.746,0.52-1.138c0.219-0.391,0.547-0.937,0.982-1.635l10.777-17.488c0.307-0.502,0.678-1.105,1.11-1.811
				s0.837-1.288,1.212-1.754s0.788-0.842,1.237-1.13c0.448-0.287,0.931-0.432,1.445-0.432c0.522,0,0.909,0.145,1.159,0.432
				c0.25,0.288,0.404,0.659,0.464,1.112c0.058,0.454,0.071,0.939,0.04,1.459c-0.033,0.521-0.086,1.217-0.158,2.086L49.588,31.41
				c-0.078,1.323-0.221,2.285-0.428,2.884c-0.216,0.624-0.592,1.196-1.13,1.718s-1.06,0.78-1.565,0.78
				c-0.295,0-0.521-0.077-0.68-0.23c-0.158-0.152-0.262-0.36-0.315-0.624c-0.052-0.264-0.065-0.666-0.042-1.212
				C45.451,34.181,45.475,33.702,45.502,33.284z M40.647,25.808h5.537l1.042-11.114L40.647,25.808z"/>
			<path fill="#FFFFFF" d="M68.479,8.943c1.923,0,3.377,0.567,4.365,1.699c0.986,1.134,1.473,2.744,1.461,4.832
				c-0.013,2.089-0.505,4.541-1.477,7.357c-0.719,2.082-1.566,3.974-2.542,5.677c-0.976,1.702-2.065,3.179-3.272,4.428
				c-1.207,1.249-2.488,2.204-3.847,2.864c-1.358,0.663-2.767,0.993-4.224,0.993c-1.449,0-2.631-0.34-3.542-1.02
				c-0.911-0.681-1.538-1.638-1.878-2.875c-0.34-1.236-0.406-2.724-0.197-4.463s0.662-3.619,1.357-5.64
				c0.716-2.07,1.574-3.968,2.58-5.695c1.004-1.727,2.104-3.197,3.297-4.408c1.194-1.213,2.459-2.141,3.793-2.784
				C65.688,9.264,67.063,8.943,68.479,8.943z M69.033,22.794c0.681-1.973,1.053-3.68,1.112-5.125
				c0.061-1.445-0.188-2.538-0.745-3.279c-0.559-0.741-1.363-1.111-2.417-1.111c-0.751,0-1.515,0.205-2.292,0.615
				c-0.779,0.41-1.533,1.007-2.262,1.792c-0.73,0.783-1.439,1.784-2.125,3.004c-0.686,1.218-1.291,2.586-1.814,4.105
				c-0.528,1.53-0.873,2.915-1.035,4.151c-0.161,1.238-0.14,2.263,0.063,3.077c0.203,0.815,0.55,1.423,1.038,1.829
				c0.488,0.404,1.107,0.605,1.857,0.605c0.961,0,1.965-0.349,3.011-1.046s2.059-1.775,3.036-3.232
				C67.441,26.719,68.298,24.925,69.033,22.794z"/>
			<path fill="#FFFFFF" d="M87.735,28.25c-0.562,1.629-1.356,3.093-2.382,4.391c-1.025,1.298-2.221,2.314-3.587,3.049
				c-1.367,0.733-2.812,1.102-4.339,1.102c-1.828,0-3.164-0.502-4.006-1.507c-0.594-0.723-0.945-1.685-1.057-2.893
				c-0.109-1.205,0.031-2.378,0.425-3.517c0.228-0.662,0.582-1.228,1.062-1.698c0.478-0.473,0.961-0.708,1.45-0.708
				c0.396,0,0.669,0.183,0.815,0.55c0.146,0.368,0.193,0.913,0.138,1.635c-0.06,0.858-0.052,1.574,0.022,2.15
				c0.075,0.576,0.297,1.05,0.666,1.424c0.367,0.375,0.957,0.56,1.766,0.56c1.113,0,2.146-0.376,3.102-1.129
				c0.956-0.753,1.628-1.693,2.017-2.82c0.309-0.895,0.371-1.62,0.189-2.177c-0.183-0.558-0.521-0.983-1.015-1.276
				c-0.492-0.294-1.178-0.606-2.059-0.938c-1.176-0.453-2.107-0.983-2.796-1.589c-0.688-0.607-1.116-1.433-1.28-2.48
				c-0.166-1.047,0.02-2.348,0.556-3.902c0.513-1.484,1.245-2.799,2.199-3.951c0.952-1.15,2.062-2.035,3.331-2.655
				c1.266-0.618,2.611-0.927,4.036-0.927c1.138,0,2.051,0.206,2.741,0.615c0.688,0.411,1.189,0.956,1.502,1.637
				c0.312,0.679,0.467,1.392,0.462,2.139s-0.13,1.476-0.374,2.187c-0.225,0.648-0.584,1.234-1.08,1.754s-0.98,0.78-1.451,0.78
				c-0.431,0-0.703-0.156-0.818-0.467c-0.117-0.312-0.182-0.825-0.197-1.534c0.014-1.018-0.117-1.811-0.394-2.38
				c-0.275-0.57-0.936-0.854-1.98-0.854c-0.97,0-1.858,0.31-2.666,0.928c-0.808,0.619-1.362,1.364-1.661,2.231
				c-0.187,0.54-0.246,1.005-0.179,1.396c0.067,0.392,0.229,0.729,0.485,1.011c0.256,0.282,0.539,0.501,0.847,0.661
				s0.825,0.393,1.554,0.698c0.923,0.356,1.734,0.747,2.434,1.176s1.24,0.949,1.623,1.562c0.383,0.612,0.578,1.387,0.589,2.323
				C88.434,25.742,88.205,26.892,87.735,28.25z"/>
			<path fill="#FFFFFF" d="M101.043,33.284l0.281-3.38h-7.535l-2.077,3.454c-0.811,1.347-1.42,2.257-1.827,2.727
				c-0.406,0.472-0.888,0.708-1.443,0.708c-0.474,0-0.804-0.251-0.992-0.753c-0.189-0.503-0.174-1.07,0.045-1.709
				c0.127-0.367,0.3-0.746,0.52-1.138c0.219-0.391,0.547-0.937,0.982-1.635l10.777-17.488c0.307-0.502,0.678-1.105,1.111-1.811
				c0.432-0.705,0.836-1.288,1.211-1.754c0.376-0.466,0.788-0.842,1.237-1.13c0.448-0.287,0.931-0.432,1.445-0.432
				c0.522,0,0.909,0.145,1.159,0.432c0.25,0.288,0.404,0.659,0.465,1.112c0.057,0.454,0.07,0.939,0.039,1.459
				c-0.033,0.521-0.086,1.217-0.157,2.086l-1.155,17.378c-0.078,1.323-0.221,2.285-0.427,2.884
				c-0.216,0.624-0.593,1.196-1.131,1.718s-1.06,0.78-1.565,0.78c-0.295,0-0.521-0.077-0.679-0.23
				c-0.158-0.152-0.263-0.36-0.316-0.624c-0.052-0.264-0.065-0.666-0.042-1.212C100.992,34.181,101.016,33.702,101.043,33.284z
				 M96.189,25.808h5.537l1.042-11.114L96.189,25.808z"/>
		</g>
	</g>
</g>
</svg>
