<?xml version="1.0" encoding="utf-8"?>
<!-- Generator: Adobe Illustrator 16.0.0, SVG Export Plug-In . SVG Version: 6.00 Build 0)  -->
<!DOCTYPE svg PUBLIC "-//W3C//DTD SVG 1.1//EN" "http://www.w3.org/Graphics/SVG/1.1/DTD/svg11.dtd">
<svg version="1.1" id="Capa_1" xmlns="http://www.w3.org/2000/svg" xmlns:xlink="http://www.w3.org/1999/xlink" x="0px" y="0px"
	 width="44.551px" height="40.395px" viewBox="0 0 44.551 40.395" enable-background="new 0 0 44.551 40.395" xml:space="preserve">
<g>
	<path fill="#FFFFFF" d="M18.018,17.957c-0.278,0.278-0.278,0.724,0,1.002l3.758,3.758c0.137,0.137,0.32,0.211,0.499,0.211
		c0.178,0,0.362-0.068,0.498-0.211l3.76-3.758c0.277-0.278,0.277-0.724,0-1.002c-0.279-0.279-0.725-0.279-1.004,0l-2.545,2.546
		V8.335c0-0.394-0.315-0.709-0.709-0.709s-0.708,0.315-0.708,0.709v12.168l-2.546-2.546C18.742,17.678,18.292,17.678,18.018,17.957
		L18.018,17.957z M18.018,17.957"/>
	<path fill="#FFFFFF" d="M33.86,23.762l-2.467-8.922c-0.058-0.206-0.2-0.368-0.389-0.458l-0.068-0.032
		c-0.095-0.041-0.194-0.062-0.294-0.062h-4.446c-0.394,0-0.708,0.315-0.708,0.709s0.314,0.708,0.708,0.708h3.969l2.084,7.55h-5.512
		c-0.394,0-0.708,0.314-0.708,0.707v0.641c0,0.939-0.762,1.701-1.701,1.701h-4.326c-0.939,0-1.701-0.762-1.701-1.701v-0.641
		c0-0.393-0.314-0.707-0.708-0.707h-5.297l2.095-7.565h3.968c0.394,0,0.709-0.316,0.709-0.708c0-0.394-0.315-0.71-0.709-0.71h-4.451
		c-0.1,0-0.2,0.021-0.294,0.062l-0.068,0.032c-0.189,0.089-0.336,0.252-0.389,0.457l-2.467,8.923
		c-0.015,0.062-0.026,0.127-0.026,0.189v3.721c0,2.82,2.294,5.113,5.113,5.113h12.998c2.818,0,5.112-2.293,5.112-5.113v-3.705
		C33.887,23.883,33.881,23.821,33.86,23.762L33.86,23.762z M32.47,27.656c0,2.037-1.659,3.697-3.695,3.697H15.777
		c-2.037,0-3.695-1.66-3.695-3.697v-2.984h4.813c0.037,1.684,1.422,3.043,3.118,3.043h4.325c1.695,0,3.081-1.359,3.119-3.043h5.023
		v2.984H32.47z M32.47,27.656"/>
</g>
</svg>
