<svg xmlns="http://www.w3.org/2000/svg" viewBox="0 0 21.4 21.4"><defs><style>.cls-1{fill:#fff;}.cls-2{fill:#e79542;}</style></defs><title>Asset 2</title><g id="Layer_2" data-name="Layer 2"><g id="clic_analisis_suelo" data-name="clic analisis suelo"><circle class="cls-1" cx="10.7" cy="10.7" r="10.7"/><path class="cls-2" d="M14.56,9.39a.41.41,0,0,0,.58,0,.41.41,0,0,0,0-.58L11,4.66a.42.42,0,0,0-.29-.12h0a.4.4,0,0,0-.33.18L6.26,8.82a.42.42,0,0,0,0,.59.41.41,0,0,0,.58,0L10.28,6V17.6a.42.42,0,1,0,.83,0V5.94Z"/><path class="cls-2" d="M7.79,14.5"/></g></g></svg>