<?xml version="1.0" encoding="utf-8"?>
<!-- Generator: Adobe Illustrator 16.0.0, SVG Export Plug-In . SVG Version: 6.00 Build 0)  -->
<!DOCTYPE svg PUBLIC "-//W3C//DTD SVG 1.1//EN" "http://www.w3.org/Graphics/SVG/1.1/DTD/svg11.dtd">
<svg version="1.1" id="Capa_1" xmlns="http://www.w3.org/2000/svg" xmlns:xlink="http://www.w3.org/1999/xlink" x="0px" y="0px"
	 width="106.67px" height="45.15px" viewBox="7.889 8.76 106.67 45.15" enable-background="new 7.889 8.76 106.67 45.15"
	 xml:space="preserve">
<g>
	<g>
		<path fill="#FFFFFF" d="M106.671,32.933c0-2.181,1.768-3.948,3.944-3.948l0,0c2.181,0,3.944,1.767,3.944,3.948l0,0
			c0,2.179-1.764,3.944-3.944,3.944l0,0C108.438,36.877,106.671,35.112,106.671,32.933L106.671,32.933z M107.313,32.933
			c0.003,1.823,1.479,3.298,3.302,3.304l0,0c1.824-0.006,3.299-1.48,3.302-3.304l0,0c-0.003-1.825-1.478-3.301-3.302-3.304l0,0
			C108.792,29.632,107.316,31.108,107.313,32.933L107.313,32.933z"/>
		<g>
			<g>
				<path fill="#FFFFFF" d="M109.103,30.571h0.943c0.523,0,0.877,0.021,1.064,0.064c0.28,0.063,0.51,0.202,0.686,0.413
					c0.175,0.211,0.262,0.471,0.262,0.779c0,0.258-0.061,0.483-0.182,0.679c-0.119,0.196-0.292,0.344-0.519,0.44
					c-0.223,0.101-0.535,0.153-0.931,0.154l1.698,2.194h-0.583l-1.698-2.194h-0.268v2.194h-0.474V30.571z M109.577,31.033v1.604
					l0.812,0.008c0.316,0,0.551-0.031,0.702-0.091c0.152-0.06,0.268-0.156,0.354-0.288c0.083-0.131,0.125-0.278,0.125-0.44
					c0-0.159-0.042-0.304-0.129-0.432c-0.086-0.129-0.198-0.223-0.339-0.278c-0.136-0.055-0.369-0.083-0.692-0.083H109.577z"/>
			</g>
		</g>
	</g>
	<g>
		<path fill="#FFFFFF" d="M8.294,33.345l7.34-21.27c0.382-1.105,0.842-1.934,1.379-2.487c0.537-0.552,1.08-0.828,1.628-0.828
			c0.566,0,0.931,0.273,1.093,0.819c0.162,0.546,0.049,1.379-0.336,2.497l-7.34,21.27c-0.387,1.117-0.849,1.953-1.391,2.504
			c-0.542,0.554-1.095,0.829-1.662,0.829c-0.542,0-0.889-0.279-1.047-0.838C7.8,35.282,7.913,34.449,8.294,33.345z"/>
		<path fill="#FFFFFF" d="M32.19,28.115c-0.564,1.631-1.36,3.1-2.387,4.401c-1.028,1.302-2.227,2.321-3.597,3.057
			c-1.37,0.737-2.818,1.105-4.349,1.105c-1.833,0-3.171-0.503-4.016-1.51c-0.595-0.725-0.947-1.69-1.057-2.901
			c-0.112-1.208,0.031-2.385,0.425-3.526c0.228-0.663,0.583-1.231,1.062-1.704c0.48-0.472,0.965-0.708,1.456-0.708
			c0.397,0,0.669,0.185,0.816,0.552c0.147,0.369,0.193,0.915,0.139,1.639c-0.062,0.859-0.054,1.578,0.022,2.155
			c0.076,0.577,0.297,1.053,0.668,1.426c0.369,0.375,0.959,0.562,1.77,0.562c1.116,0,2.152-0.378,3.11-1.132
			c0.958-0.756,1.63-1.697,2.02-2.828c0.31-0.896,0.373-1.623,0.19-2.182c-0.185-0.56-0.522-0.985-1.016-1.281
			c-0.494-0.295-1.183-0.607-2.066-0.939c-1.178-0.453-2.112-0.986-2.802-1.593c-0.69-0.608-1.117-1.437-1.284-2.485
			c-0.167-1.051,0.021-2.354,0.557-3.915c0.514-1.485,1.249-2.806,2.205-3.959c0.955-1.153,2.069-2.041,3.339-2.661
			c1.269-0.62,2.619-0.929,4.047-0.929c1.141,0,2.056,0.205,2.746,0.617c0.69,0.41,1.193,0.958,1.507,1.639
			c0.313,0.682,0.468,1.396,0.463,2.145c-0.004,0.75-0.131,1.48-0.376,2.191c-0.225,0.652-0.586,1.238-1.083,1.759
			c-0.497,0.522-0.982,0.783-1.455,0.783c-0.431,0-0.705-0.156-0.819-0.47c-0.116-0.312-0.183-0.825-0.199-1.537
			c0.014-1.019-0.116-1.814-0.393-2.385c-0.276-0.571-0.938-0.857-1.985-0.857c-0.973,0-1.864,0.311-2.673,0.931
			c-0.809,0.619-1.364,1.365-1.665,2.237c-0.188,0.541-0.247,1.007-0.18,1.399c0.067,0.392,0.229,0.73,0.488,1.013
			c0.256,0.283,0.54,0.503,0.848,0.663c0.308,0.16,0.827,0.393,1.557,0.7c0.925,0.356,1.738,0.75,2.439,1.179
			c0.701,0.43,1.244,0.95,1.627,1.565c0.384,0.614,0.581,1.391,0.591,2.331C32.89,25.601,32.66,26.751,32.19,28.115z"/>
		<path fill="#FFFFFF" d="M45.531,33.16l0.283-3.388h-7.555l-2.083,3.462c-0.812,1.351-1.422,2.262-1.83,2.734
			c-0.409,0.473-0.891,0.709-1.45,0.709c-0.473,0-0.803-0.251-0.993-0.755s-0.174-1.074,0.046-1.713
			c0.126-0.367,0.3-0.748,0.521-1.141c0.221-0.395,0.549-0.94,0.985-1.641l10.803-17.532c0.309-0.502,0.68-1.107,1.114-1.813
			c0.434-0.707,0.839-1.292,1.217-1.76c0.376-0.466,0.788-0.843,1.239-1.132S48.76,8.76,49.276,8.76
			c0.523,0,0.912,0.144,1.163,0.433c0.25,0.289,0.405,0.66,0.464,1.114c0.058,0.454,0.072,0.943,0.04,1.463
			c-0.033,0.522-0.084,1.22-0.157,2.092l-1.159,17.42c-0.078,1.327-0.22,2.291-0.429,2.892c-0.216,0.627-0.594,1.2-1.132,1.723
			c-0.54,0.521-1.062,0.782-1.569,0.782c-0.296,0-0.524-0.078-0.681-0.23c-0.16-0.153-0.263-0.361-0.317-0.625
			c-0.052-0.265-0.067-0.669-0.043-1.217C45.48,34.06,45.505,33.578,45.531,33.16z M40.665,25.665h5.551l1.044-11.142L40.665,25.665
			z"/>
		<path fill="#FFFFFF" d="M68.565,8.76c1.927,0,3.384,0.568,4.375,1.703c0.988,1.136,1.479,2.75,1.464,4.845
			c-0.013,2.093-0.505,4.551-1.48,7.375c-0.721,2.087-1.569,3.983-2.547,5.689c-0.979,1.708-2.07,3.186-3.281,4.438
			c-1.209,1.252-2.494,2.21-3.854,2.872c-1.362,0.664-2.774,0.995-4.235,0.995c-1.453,0-2.637-0.341-3.552-1.022
			c-0.913-0.681-1.541-1.642-1.881-2.882c-0.341-1.239-0.408-2.731-0.198-4.474c0.208-1.743,0.662-3.628,1.361-5.654
			c0.717-2.075,1.578-3.979,2.585-5.71c1.008-1.73,2.109-3.204,3.307-4.419c1.196-1.216,2.464-2.146,3.801-2.791
			C65.768,9.082,67.146,8.76,68.565,8.76z M69.121,22.646c0.683-1.977,1.054-3.69,1.114-5.139c0.062-1.449-0.188-2.543-0.748-3.287
			c-0.558-0.742-1.365-1.114-2.423-1.114c-0.751,0-1.517,0.206-2.297,0.618c-0.779,0.411-1.535,1.009-2.268,1.795
			c-0.731,0.786-1.441,1.79-2.128,3.01c-0.688,1.223-1.296,2.594-1.821,4.117c-0.529,1.535-0.875,2.921-1.037,4.162
			c-0.162,1.24-0.141,2.268,0.063,3.083c0.205,0.818,0.552,1.428,1.041,1.834c0.489,0.404,1.111,0.606,1.862,0.606
			c0.963,0,1.969-0.35,3.018-1.05c1.048-0.699,2.062-1.779,3.046-3.241C67.524,26.58,68.384,24.782,69.121,22.646z"/>
		<path fill="#FFFFFF" d="M87.87,28.115c-0.562,1.631-1.359,3.1-2.387,4.401c-1.031,1.302-2.229,2.321-3.599,3.057
			c-1.37,0.737-2.818,1.105-4.35,1.105c-1.833,0-3.172-0.503-4.016-1.51c-0.595-0.725-0.947-1.69-1.057-2.901
			c-0.112-1.208,0.029-2.385,0.425-3.526c0.228-0.663,0.582-1.231,1.062-1.704c0.48-0.472,0.966-0.708,1.457-0.708
			c0.396,0,0.668,0.185,0.816,0.552c0.146,0.369,0.193,0.915,0.137,1.639c-0.059,0.859-0.052,1.578,0.024,2.155
			c0.074,0.577,0.297,1.053,0.665,1.426c0.371,0.375,0.96,0.562,1.771,0.562c1.115,0,2.151-0.378,3.109-1.132
			c0.958-0.756,1.63-1.697,2.02-2.828c0.31-0.896,0.375-1.623,0.19-2.182c-0.185-0.56-0.521-0.985-1.018-1.281
			c-0.49-0.295-1.181-0.607-2.063-0.939c-1.178-0.453-2.111-0.986-2.802-1.593c-0.689-0.608-1.118-1.437-1.283-2.485
			c-0.167-1.051,0.02-2.354,0.558-3.915c0.514-1.485,1.248-2.806,2.205-3.959c0.954-1.153,2.068-2.041,3.336-2.661
			c1.271-0.62,2.621-0.929,4.051-0.929c1.14,0,2.057,0.205,2.746,0.617c0.69,0.41,1.193,0.958,1.509,1.639
			c0.312,0.682,0.467,1.396,0.463,2.145c-0.005,0.75-0.13,1.48-0.377,2.191c-0.224,0.652-0.586,1.238-1.083,1.759
			c-0.497,0.522-0.982,0.783-1.455,0.783c-0.432,0-0.705-0.156-0.82-0.47c-0.113-0.312-0.183-0.825-0.196-1.537
			c0.012-1.019-0.119-1.814-0.396-2.385c-0.274-0.571-0.938-0.857-1.986-0.857c-0.975,0-1.863,0.311-2.673,0.931
			c-0.812,0.619-1.365,1.365-1.666,2.237c-0.188,0.541-0.247,1.007-0.182,1.399c0.069,0.392,0.232,0.73,0.488,1.013
			c0.259,0.283,0.542,0.503,0.849,0.663c0.309,0.16,0.83,0.393,1.559,0.7c0.924,0.356,1.738,0.75,2.439,1.179
			c0.704,0.43,1.245,0.95,1.63,1.565c0.384,0.614,0.58,1.391,0.589,2.331C88.572,25.601,88.34,26.751,87.87,28.115z"/>
		<path fill="#FFFFFF" d="M101.212,33.16l0.283-3.388h-7.557l-2.082,3.462c-0.812,1.351-1.422,2.262-1.83,2.734
			c-0.407,0.473-0.893,0.709-1.448,0.709c-0.473,0-0.807-0.251-0.994-0.755c-0.19-0.504-0.175-1.074,0.046-1.713
			c0.127-0.367,0.3-0.748,0.52-1.141c0.221-0.395,0.551-0.94,0.984-1.641l10.806-17.532c0.309-0.502,0.678-1.107,1.112-1.813
			c0.435-0.707,0.838-1.292,1.216-1.76c0.378-0.466,0.789-0.843,1.241-1.132c0.449-0.289,0.931-0.433,1.448-0.433
			c0.523,0,0.911,0.144,1.16,0.433c0.253,0.289,0.407,0.66,0.468,1.114c0.056,0.454,0.07,0.943,0.038,1.463
			c-0.032,0.522-0.087,1.22-0.158,2.092l-1.156,17.42c-0.077,1.327-0.221,2.291-0.43,2.892c-0.216,0.627-0.594,1.2-1.133,1.723
			c-0.538,0.521-1.062,0.782-1.57,0.782c-0.295,0-0.521-0.078-0.678-0.23c-0.161-0.153-0.266-0.361-0.319-0.625
			c-0.05-0.265-0.064-0.669-0.041-1.217C101.161,34.06,101.185,33.578,101.212,33.16z M96.344,25.665h5.551l1.045-11.142
			L96.344,25.665z"/>
	</g>
</g>
</svg>
