<?xml version="1.0" encoding="utf-8"?>
<!-- Generator: Adobe Illustrator 16.0.0, SVG Export Plug-In . SVG Version: 6.00 Build 0)  -->
<!DOCTYPE svg PUBLIC "-//W3C//DTD SVG 1.1//EN" "http://www.w3.org/Graphics/SVG/1.1/DTD/svg11.dtd">
<svg version="1.1" id="Capa_1" xmlns="http://www.w3.org/2000/svg" xmlns:xlink="http://www.w3.org/1999/xlink" x="0px" y="0px"
	 width="115.043px" height="32.525px" viewBox="0 0 115.043 32.525" enable-background="new 0 0 115.043 32.525"
	 xml:space="preserve">
<g>
	<g>
		<g>
			<path fill="#FFFFFF" d="M0.471,28.642L9.023,3.862c0.444-1.288,0.979-2.253,1.604-2.896C11.255,0.322,11.886,0,12.526,0
				c0.66,0,1.084,0.318,1.271,0.954c0.189,0.639,0.06,1.607-0.389,2.908L4.855,28.642c-0.448,1.303-0.989,2.274-1.619,2.918
				C2.605,32.204,1.96,32.525,1.3,32.525c-0.629,0-1.036-0.326-1.22-0.977C-0.103,30.898,0.028,29.929,0.471,28.642z"/>
			<path fill="#FFFFFF" d="M28.311,22.55c-0.657,1.901-1.585,3.61-2.782,5.126c-1.197,1.518-2.594,2.703-4.189,3.563
				c-1.596,0.856-3.284,1.286-5.065,1.286c-2.137,0-3.697-0.586-4.679-1.76c-0.693-0.844-1.104-1.971-1.234-3.379
				c-0.127-1.408,0.037-2.777,0.496-4.108c0.267-0.772,0.68-1.435,1.238-1.984c0.559-0.551,1.124-0.826,1.695-0.826
				c0.463,0,0.78,0.216,0.951,0.644c0.172,0.43,0.226,1.066,0.161,1.909c-0.069,1.002-0.062,1.838,0.025,2.511
				c0.089,0.672,0.349,1.227,0.778,1.662c0.43,0.438,1.117,0.655,2.063,0.655c1.299,0,2.506-0.44,3.622-1.319
				c1.116-0.88,1.901-1.978,2.354-3.293c0.36-1.045,0.434-1.892,0.222-2.543c-0.214-0.651-0.607-1.148-1.185-1.49
				c-0.576-0.344-1.378-0.709-2.405-1.096c-1.372-0.528-2.46-1.148-3.266-1.855c-0.803-0.708-1.302-1.673-1.496-2.896
				c-0.191-1.224,0.024-2.743,0.65-4.559c0.599-1.732,1.454-3.27,2.568-4.614c1.112-1.344,2.408-2.377,3.89-3.101
				C24.204,0.362,25.775,0,27.44,0c1.328,0,2.395,0.24,3.199,0.718c0.804,0.48,1.39,1.117,1.755,1.91
				c0.366,0.795,0.547,1.628,0.54,2.5C32.93,6,32.782,6.852,32.496,7.682c-0.261,0.758-0.682,1.441-1.261,2.048
				c-0.578,0.609-1.145,0.912-1.695,0.912c-0.502,0-0.821-0.182-0.955-0.546c-0.135-0.366-0.212-0.963-0.23-1.792
				c0.016-1.188-0.137-2.114-0.459-2.779c-0.321-0.665-1.093-0.997-2.312-0.997c-1.133,0-2.171,0.36-3.114,1.083
				c-0.943,0.723-1.59,1.592-1.94,2.607c-0.217,0.629-0.287,1.172-0.208,1.63c0.079,0.458,0.268,0.852,0.566,1.182
				c0.3,0.329,0.629,0.585,0.989,0.771c0.359,0.187,0.964,0.458,1.814,0.815c1.077,0.416,2.025,0.873,2.841,1.374
				c0.817,0.501,1.45,1.108,1.896,1.823c0.447,0.715,0.676,1.62,0.687,2.714C29.126,19.62,28.858,20.961,28.311,22.55z"/>
			<path fill="#FFFFFF" d="M43.852,28.428l0.329-3.948h-8.8l-2.426,4.034c-0.947,1.572-1.659,2.636-2.134,3.186
				s-1.037,0.826-1.687,0.826c-0.553,0-0.938-0.294-1.157-0.88c-0.223-0.587-0.204-1.251,0.052-1.995
				c0.148-0.43,0.35-0.872,0.607-1.33c0.255-0.458,0.638-1.094,1.146-1.91L42.368,5.986c0.36-0.586,0.793-1.291,1.299-2.114
				c0.505-0.822,0.976-1.504,1.415-2.048c0.438-0.544,0.92-0.983,1.445-1.32C47.052,0.169,47.614,0,48.216,0
				c0.608,0,1.061,0.169,1.353,0.504c0.292,0.337,0.474,0.771,0.542,1.299c0.067,0.53,0.084,1.097,0.046,1.705
				c-0.037,0.608-0.1,1.42-0.184,2.436l-1.349,20.296c-0.092,1.544-0.257,2.667-0.499,3.368c-0.252,0.729-0.691,1.398-1.319,2.006
				c-0.629,0.608-1.239,0.912-1.828,0.912c-0.345,0-0.61-0.09-0.794-0.269s-0.306-0.422-0.368-0.729
				c-0.062-0.308-0.077-0.778-0.051-1.415C43.794,29.475,43.821,28.914,43.852,28.428z M38.184,19.696h6.466l1.218-12.98
				L38.184,19.696z"/>
			<path fill="#FFFFFF" d="M70.688,0c2.244,0,3.943,0.662,5.096,1.984c1.153,1.324,1.722,3.205,1.708,5.643
				c-0.017,2.438-0.591,5.304-1.726,8.593c-0.839,2.432-1.829,4.642-2.968,6.63c-1.14,1.988-2.413,3.712-3.822,5.171
				c-1.408,1.458-2.907,2.574-4.492,3.347s-3.23,1.158-4.933,1.158c-1.693,0-3.073-0.397-4.138-1.19
				c-1.063-0.795-1.795-1.913-2.192-3.358c-0.397-1.444-0.475-3.182-0.23-5.213s0.773-4.227,1.586-6.587
				c0.835-2.417,1.838-4.634,3.012-6.65c1.173-2.018,2.458-3.733,3.852-5.148c1.395-1.416,2.87-2.501,4.429-3.251
				C67.428,0.376,69.033,0,70.688,0z M71.335,16.177c0.794-2.304,1.229-4.298,1.299-5.985c0.071-1.688-0.221-2.965-0.87-3.83
				c-0.653-0.866-1.593-1.298-2.823-1.298c-0.877,0-1.769,0.24-2.678,0.72c-0.908,0.479-1.79,1.176-2.641,2.09
				c-0.854,0.916-1.68,2.086-2.48,3.51c-0.802,1.422-1.509,3.021-2.119,4.794c-0.618,1.788-1.021,3.404-1.211,4.849
				c-0.188,1.446-0.162,2.644,0.075,3.594c0.237,0.952,0.643,1.662,1.213,2.136c0.569,0.472,1.292,0.707,2.169,0.707
				c1.121,0,2.293-0.407,3.516-1.223c1.222-0.815,2.404-2.073,3.546-3.775C69.476,20.761,70.476,18.666,71.335,16.177z"/>
			<path fill="#FFFFFF" d="M93.176,22.55c-0.657,1.901-1.585,3.61-2.782,5.126c-1.197,1.518-2.594,2.703-4.188,3.563
				c-1.596,0.856-3.285,1.286-5.065,1.286c-2.138,0-3.697-0.586-4.679-1.76c-0.694-0.844-1.105-1.971-1.234-3.379
				c-0.128-1.408,0.037-2.777,0.495-4.108c0.267-0.772,0.679-1.435,1.239-1.984c0.559-0.551,1.124-0.826,1.693-0.826
				c0.465,0,0.782,0.216,0.952,0.644c0.172,0.43,0.227,1.066,0.162,1.909c-0.071,1.002-0.062,1.838,0.025,2.511
				c0.089,0.672,0.349,1.227,0.778,1.662c0.43,0.438,1.117,0.655,2.063,0.655c1.299,0,2.506-0.44,3.621-1.319
				c1.116-0.88,1.901-1.978,2.354-3.293c0.361-1.045,0.435-1.892,0.221-2.543c-0.213-0.651-0.606-1.148-1.184-1.49
				c-0.575-0.344-1.377-0.709-2.405-1.096c-1.371-0.528-2.46-1.148-3.265-1.855c-0.803-0.708-1.302-1.673-1.496-2.896
				c-0.192-1.224,0.024-2.743,0.65-4.559c0.597-1.732,1.453-3.27,2.567-4.614c1.112-1.344,2.409-2.377,3.89-3.101
				C89.07,0.362,90.642,0,92.306,0c1.328,0,2.395,0.24,3.2,0.718c0.804,0.48,1.388,1.117,1.755,1.91
				c0.366,0.795,0.545,1.628,0.539,2.5C97.795,6,97.647,6.852,97.362,7.682c-0.262,0.758-0.682,1.441-1.262,2.048
				c-0.578,0.609-1.144,0.912-1.694,0.912c-0.503,0-0.821-0.182-0.956-0.546c-0.135-0.366-0.211-0.963-0.229-1.792
				c0.015-1.188-0.138-2.114-0.46-2.779c-0.321-0.665-1.092-0.997-2.313-0.997c-1.131,0-2.169,0.36-3.113,1.083
				c-0.942,0.723-1.59,1.592-1.939,2.607c-0.218,0.629-0.287,1.172-0.209,1.63c0.079,0.458,0.267,0.852,0.567,1.182
				c0.299,0.329,0.629,0.585,0.988,0.771c0.36,0.187,0.965,0.458,1.815,0.815c1.076,0.416,2.023,0.873,2.841,1.374
				c0.816,0.501,1.449,1.108,1.896,1.823c0.447,0.715,0.676,1.62,0.688,2.714S93.725,20.961,93.176,22.55z"/>
			<path fill="#FFFFFF" d="M108.718,28.428l0.329-3.948h-8.801l-2.426,4.034c-0.946,1.572-1.658,2.636-2.134,3.186
				c-0.475,0.55-1.037,0.826-1.686,0.826c-0.553,0-0.938-0.294-1.159-0.88c-0.222-0.587-0.203-1.251,0.053-1.995
				c0.148-0.43,0.351-0.872,0.606-1.33c0.257-0.458,0.64-1.094,1.147-1.91l12.586-20.424c0.36-0.586,0.792-1.291,1.298-2.114
				c0.505-0.822,0.977-1.504,1.416-2.048c0.438-0.544,0.92-0.983,1.444-1.32C111.916,0.169,112.48,0,113.081,0
				c0.609,0,1.061,0.169,1.354,0.504c0.292,0.337,0.473,0.771,0.542,1.299c0.067,0.53,0.084,1.097,0.046,1.705
				s-0.1,1.42-0.185,2.436l-1.348,20.296c-0.092,1.544-0.258,2.667-0.5,3.368c-0.251,0.729-0.691,1.398-1.32,2.006
				c-0.627,0.608-1.237,0.912-1.827,0.912c-0.344,0-0.609-0.09-0.793-0.269c-0.186-0.179-0.308-0.422-0.368-0.729
				c-0.062-0.308-0.077-0.778-0.051-1.415C108.659,29.475,108.687,28.914,108.718,28.428z M103.05,19.696h6.466l1.218-12.98
				L103.05,19.696z"/>
		</g>
	</g>
</g>
</svg>
