<?xml version="1.0" encoding="utf-8"?>
<!-- Generator: Adobe Illustrator 16.0.0, SVG Export Plug-In . SVG Version: 6.00 Build 0)  -->
<!DOCTYPE svg PUBLIC "-//W3C//DTD SVG 1.1//EN" "http://www.w3.org/Graphics/SVG/1.1/DTD/svg11.dtd">
<svg version="1.1" id="Capa_1" xmlns="http://www.w3.org/2000/svg" xmlns:xlink="http://www.w3.org/1999/xlink" x="0px" y="0px"
	 width="106.67px" height="45.15px" viewBox="7.889 8.76 106.67 45.15" enable-background="new 7.889 8.76 106.67 45.15"
	 xml:space="preserve">
<g>
	<g>
		<g>
			<path fill="#FFFFFF" d="M8.077,46.621h0.666v0.925c0.265-0.354,0.56-0.618,0.882-0.794c0.322-0.177,0.674-0.266,1.054-0.266
				c0.387,0,0.729,0.099,1.028,0.295c0.299,0.196,0.519,0.461,0.662,0.794c0.143,0.334,0.215,0.851,0.215,1.553v2.659h-0.666v-2.466
				c0-0.595-0.025-0.99-0.074-1.189c-0.076-0.342-0.224-0.601-0.443-0.773c-0.219-0.172-0.503-0.259-0.854-0.259
				c-0.403,0-0.763,0.134-1.082,0.398c-0.318,0.268-0.527,0.596-0.629,0.987c-0.062,0.26-0.094,0.727-0.094,1.407v1.895H8.077
				V46.621z"/>
			<path fill="#FFFFFF" d="M12.684,51.887h-0.866v-2.565c0-0.582-0.024-0.975-0.071-1.165c-0.071-0.32-0.208-0.562-0.408-0.72
				c-0.2-0.157-0.467-0.237-0.792-0.237c-0.381,0-0.714,0.123-1.018,0.376c-0.304,0.256-0.499,0.562-0.596,0.936
				c-0.06,0.249-0.09,0.715-0.09,1.382v1.994H7.977v-5.365h0.866v0.742c0.225-0.255,0.471-0.456,0.734-0.6
				c0.336-0.185,0.707-0.277,1.102-0.277c0.403,0,0.768,0.104,1.083,0.311c0.314,0.206,0.549,0.488,0.699,0.839
				c0.15,0.35,0.223,0.871,0.223,1.592V51.887z M12.018,51.688h0.465v-2.56c0-0.684-0.069-1.193-0.207-1.514
				c-0.134-0.313-0.344-0.565-0.625-0.749c-0.282-0.186-0.609-0.279-0.973-0.279c-0.361,0-0.7,0.086-1.006,0.254
				c-0.31,0.169-0.596,0.427-0.85,0.766l-0.18,0.241v-1.126H8.177v4.967h0.466v-1.795c0-0.692,0.032-1.161,0.097-1.431
				c0.106-0.411,0.329-0.761,0.662-1.04C9.738,47.142,10.123,47,10.547,47c0.371,0,0.679,0.094,0.916,0.279
				c0.237,0.188,0.398,0.467,0.479,0.831c0.051,0.207,0.077,0.604,0.077,1.211V51.688z"/>
		</g>
		<g>
			<path fill="#FFFFFF" d="M14.36,46.621h0.666v2.411c0,0.59,0.032,0.995,0.095,1.218c0.095,0.315,0.275,0.565,0.543,0.75
				c0.269,0.184,0.587,0.273,0.959,0.273c0.37,0,0.684-0.09,0.943-0.268c0.259-0.179,0.438-0.414,0.536-0.705
				c0.066-0.199,0.099-0.622,0.099-1.269v-2.411h0.679v2.534c0,0.714-0.082,1.249-0.249,1.609c-0.167,0.363-0.417,0.645-0.751,0.848
				c-0.333,0.205-0.751,0.307-1.255,0.307c-0.503,0-0.924-0.102-1.26-0.307c-0.338-0.203-0.589-0.487-0.756-0.854
				c-0.167-0.365-0.25-0.916-0.25-1.651V46.621z"/>
			<path fill="#FFFFFF" d="M16.625,52.019c-0.521,0-0.963-0.107-1.312-0.321c-0.352-0.211-0.62-0.514-0.794-0.897
				c-0.172-0.376-0.259-0.945-0.259-1.692v-2.586h0.866v2.511c0,0.577,0.031,0.978,0.091,1.19c0.089,0.295,0.254,0.522,0.503,0.695
				c0.252,0.172,0.547,0.256,0.903,0.256c0.347,0,0.645-0.085,0.886-0.25c0.239-0.166,0.407-0.386,0.498-0.655
				c0.062-0.187,0.094-0.603,0.094-1.236v-2.511h0.879v2.634c0,0.735-0.084,1.276-0.258,1.651c-0.173,0.378-0.439,0.678-0.79,0.892
				C17.586,51.911,17.146,52.019,16.625,52.019z M14.46,46.721v2.387c0,0.718,0.081,1.26,0.24,1.61
				c0.16,0.351,0.395,0.615,0.717,0.809c0.318,0.194,0.724,0.293,1.208,0.293c0.483,0,0.888-0.099,1.203-0.292
				c0.321-0.195,0.554-0.458,0.712-0.805c0.159-0.344,0.239-0.871,0.239-1.567v-2.435h-0.479v2.312c0,0.664-0.034,1.09-0.104,1.3
				c-0.105,0.312-0.298,0.565-0.574,0.756c-0.275,0.189-0.612,0.285-1,0.285c-0.391,0-0.733-0.098-1.016-0.29
				c-0.285-0.197-0.481-0.467-0.583-0.804c-0.067-0.235-0.1-0.643-0.1-1.247v-2.312H14.46z"/>
		</g>
		<g>
			<path fill="#FFFFFF" d="M21.374,44.701h0.665v1.92h1.055v0.574h-1.055v4.592h-0.665v-4.592h-0.907v-0.574h0.907V44.701z"/>
			<path fill="#FFFFFF" d="M22.138,51.887h-0.865v-4.592h-0.907v-0.773h0.907v-1.92h0.865v1.92h1.055v0.773h-1.055V51.887z
				 M21.474,51.688h0.464v-4.592h1.055v-0.375h-1.055v-1.92h-0.464v1.92h-0.907v0.375h0.907V51.688z"/>
		</g>
		<g>
			<path fill="#FFFFFF" d="M24.276,46.621h0.68v0.756c0.203-0.298,0.415-0.521,0.641-0.667c0.225-0.148,0.458-0.224,0.702-0.224
				c0.185,0,0.379,0.061,0.589,0.177l-0.347,0.562c-0.14-0.06-0.256-0.093-0.351-0.093c-0.221,0-0.436,0.093-0.641,0.273
				c-0.207,0.182-0.363,0.465-0.471,0.849c-0.082,0.295-0.122,0.889-0.122,1.784v1.749h-0.68V46.621z"/>
			<path fill="#FFFFFF" d="M25.055,51.887h-0.88v-5.365h0.88v0.554c0.157-0.192,0.317-0.34,0.487-0.449
				c0.24-0.159,0.495-0.239,0.756-0.239c0.199,0,0.408,0.062,0.637,0.188l0.092,0.052l-0.447,0.724l-0.079-0.034
				c-0.134-0.057-0.236-0.085-0.312-0.085c-0.194,0-0.387,0.084-0.575,0.249c-0.189,0.167-0.338,0.437-0.441,0.801
				c-0.079,0.282-0.118,0.873-0.118,1.757V51.887z M24.376,51.688h0.479v-1.649c0-0.914,0.041-1.507,0.126-1.811
				c0.114-0.403,0.282-0.705,0.501-0.897c0.225-0.198,0.463-0.298,0.707-0.298c0.087,0,0.187,0.021,0.31,0.068l0.246-0.398
				c-0.162-0.078-0.309-0.116-0.447-0.116c-0.225,0-0.436,0.068-0.647,0.207c-0.211,0.136-0.417,0.352-0.614,0.641l-0.183,0.269
				v-0.981h-0.479V51.688z"/>
		</g>
		<g>
			<path fill="#FFFFFF" d="M28.121,44.49c0.151,0,0.279,0.055,0.388,0.161c0.107,0.108,0.159,0.239,0.159,0.392
				c0,0.148-0.052,0.276-0.159,0.384c-0.108,0.109-0.236,0.163-0.388,0.163c-0.149,0-0.275-0.054-0.384-0.163
				c-0.107-0.107-0.16-0.235-0.16-0.384c0-0.152,0.053-0.283,0.16-0.392C27.845,44.545,27.972,44.49,28.121,44.49z M27.79,46.621
				h0.665v5.166H27.79V46.621z"/>
			<path fill="#FFFFFF" d="M28.555,51.887H27.69v-5.365h0.865V51.887z M27.89,51.688h0.465v-4.967H27.89V51.688z M28.121,45.69
				c-0.175,0-0.328-0.064-0.455-0.192c-0.125-0.126-0.189-0.278-0.189-0.454c0-0.18,0.063-0.335,0.189-0.462
				c0.262-0.256,0.66-0.251,0.914-0.001c0.125,0.127,0.189,0.282,0.189,0.463c0,0.177-0.063,0.329-0.188,0.454
				C28.453,45.625,28.299,45.69,28.121,45.69z M28.121,44.59c-0.12,0-0.223,0.044-0.314,0.133c-0.087,0.089-0.13,0.193-0.13,0.32
				c0,0.122,0.043,0.225,0.131,0.313c0.091,0.091,0.19,0.134,0.313,0.134c0.124,0,0.228-0.044,0.317-0.134
				c0.087-0.088,0.13-0.19,0.13-0.313c0-0.128-0.042-0.232-0.13-0.321C28.348,44.634,28.244,44.59,28.121,44.59z"/>
		</g>
		<g>
			<path fill="#FFFFFF" d="M34.623,50.072l0.561,0.295c-0.183,0.362-0.396,0.654-0.637,0.874c-0.241,0.224-0.512,0.39-0.812,0.506
				c-0.302,0.115-0.643,0.173-1.022,0.173c-0.843,0-1.502-0.273-1.979-0.827c-0.474-0.554-0.712-1.178-0.712-1.875
				c0-0.653,0.201-1.236,0.604-1.751c0.51-0.651,1.193-0.979,2.048-0.979c0.88,0,1.584,0.337,2.109,1.003
				c0.375,0.473,0.565,1.062,0.571,1.767h-4.65c0.014,0.601,0.206,1.092,0.577,1.476c0.371,0.385,0.829,0.578,1.373,0.578
				c0.264,0,0.519-0.049,0.767-0.141c0.249-0.089,0.461-0.212,0.636-0.363C34.232,50.655,34.421,50.41,34.623,50.072z
				 M34.623,48.682c-0.088-0.354-0.217-0.64-0.387-0.85c-0.17-0.212-0.394-0.384-0.672-0.513c-0.279-0.13-0.573-0.196-0.88-0.196
				c-0.507,0-0.943,0.164-1.307,0.491c-0.267,0.235-0.467,0.593-0.603,1.067H34.623z"/>
			<path fill="#FFFFFF" d="M32.714,52.019c-0.872,0-1.562-0.29-2.054-0.861c-0.489-0.571-0.737-1.224-0.737-1.94
				c0-0.673,0.21-1.282,0.625-1.812c0.529-0.676,1.245-1.018,2.127-1.018c0.907,0,1.643,0.35,2.188,1.041
				c0.387,0.487,0.586,1.102,0.593,1.827l0.001,0.101h-4.647c0.031,0.532,0.21,0.96,0.545,1.307c0.35,0.363,0.788,0.548,1.301,0.548
				c0.245,0,0.491-0.046,0.732-0.135c0.234-0.084,0.438-0.2,0.605-0.345c0.167-0.146,0.35-0.385,0.544-0.71l0.049-0.082l0.732,0.385
				l-0.044,0.088c-0.188,0.373-0.41,0.677-0.659,0.903c-0.244,0.226-0.528,0.403-0.843,0.525
				C33.459,51.959,33.103,52.019,32.714,52.019z M32.675,46.586c-0.818,0-1.48,0.317-1.97,0.941
				c-0.387,0.494-0.583,1.062-0.583,1.689c0,0.668,0.231,1.276,0.688,1.81c0.458,0.533,1.081,0.793,1.902,0.793
				c0.365,0,0.697-0.057,0.986-0.167c0.295-0.114,0.55-0.272,0.78-0.485c0.212-0.193,0.403-0.448,0.57-0.759l-0.39-0.205
				c-0.188,0.304-0.368,0.531-0.536,0.678c-0.186,0.162-0.411,0.29-0.667,0.382c-0.262,0.098-0.532,0.146-0.801,0.146
				c-0.57,0-1.056-0.204-1.445-0.608c-0.387-0.4-0.591-0.919-0.605-1.543l-0.002-0.102h4.65c-0.023-0.636-0.207-1.176-0.547-1.604
				C34.201,46.911,33.518,46.586,32.675,46.586z M34.751,48.781h-4.109l0.036-0.127c0.141-0.493,0.354-0.868,0.632-1.115
				c0.381-0.342,0.843-0.516,1.374-0.516c0.319,0,0.629,0.068,0.922,0.205c0.29,0.135,0.528,0.316,0.708,0.541
				c0.177,0.22,0.314,0.519,0.406,0.888L34.751,48.781z M30.909,48.582h3.583c-0.083-0.284-0.195-0.515-0.334-0.688
				c-0.161-0.2-0.375-0.363-0.637-0.484c-0.267-0.124-0.549-0.188-0.838-0.188c-0.479,0-0.897,0.157-1.24,0.466
				C31.217,47.889,31.037,48.189,30.909,48.582z"/>
		</g>
		<g>
			<path fill="#FFFFFF" d="M37.031,46.621h0.666v0.925c0.266-0.354,0.56-0.618,0.883-0.794c0.323-0.177,0.676-0.266,1.055-0.266
				c0.386,0,0.729,0.099,1.028,0.295c0.299,0.196,0.519,0.461,0.662,0.794c0.143,0.334,0.214,0.851,0.214,1.553v2.659h-0.665v-2.466
				c0-0.595-0.023-0.99-0.074-1.189c-0.077-0.342-0.225-0.601-0.443-0.773C40.138,47.187,39.853,47.1,39.5,47.1
				c-0.401,0-0.761,0.134-1.08,0.398c-0.318,0.268-0.528,0.596-0.629,0.987c-0.063,0.26-0.095,0.727-0.095,1.407v1.895h-0.666
				V46.621z"/>
			<path fill="#FFFFFF" d="M41.638,51.887h-0.865v-2.565c0-0.596-0.023-0.977-0.071-1.165c-0.073-0.321-0.21-0.562-0.408-0.72
				c-0.199-0.157-0.467-0.237-0.794-0.237c-0.375,0-0.716,0.127-1.016,0.376c-0.305,0.256-0.5,0.562-0.596,0.936
				c-0.061,0.251-0.092,0.717-0.092,1.382v1.994h-0.866v-5.365h0.866v0.743c0.227-0.256,0.473-0.458,0.735-0.601
				c0.336-0.185,0.708-0.277,1.103-0.277c0.404,0,0.768,0.104,1.083,0.311c0.313,0.206,0.548,0.488,0.699,0.839
				c0.149,0.35,0.222,0.87,0.222,1.592V51.887z M40.973,51.688h0.464v-2.56c0-0.685-0.069-1.193-0.206-1.514
				c-0.135-0.313-0.345-0.565-0.625-0.749c-0.282-0.186-0.609-0.279-0.974-0.279c-0.361,0-0.7,0.086-1.007,0.254
				c-0.308,0.168-0.594,0.426-0.851,0.767l-0.18,0.238v-1.124h-0.465v4.967h0.465v-1.795c0-0.69,0.032-1.159,0.098-1.431
				c0.106-0.411,0.329-0.761,0.662-1.04C38.693,47.142,39.078,47,39.5,47c0.374,0,0.682,0.094,0.918,0.28
				c0.235,0.186,0.396,0.465,0.479,0.829c0.051,0.202,0.077,0.599,0.077,1.212V51.688z"/>
		</g>
		<g>
			<path fill="#FFFFFF" d="M43.979,44.701h0.665v1.92h1.054v0.574h-1.054v4.592h-0.665v-4.592h-0.907v-0.574h0.907V44.701z"/>
			<path fill="#FFFFFF" d="M44.744,51.887h-0.865v-4.592h-0.907v-0.773h0.907v-1.92h0.865v1.92h1.054v0.773h-1.054V51.887z
				 M44.079,51.688h0.465v-4.592h1.054v-0.375h-1.054v-1.92h-0.465v1.92h-0.907v0.375h0.907V51.688z"/>
		</g>
		<g>
			<path fill="#FFFFFF" d="M51.483,50.072l0.559,0.295c-0.183,0.362-0.396,0.654-0.636,0.874c-0.241,0.224-0.512,0.39-0.812,0.506
				c-0.302,0.115-0.643,0.173-1.022,0.173c-0.843,0-1.502-0.273-1.978-0.827c-0.475-0.554-0.713-1.178-0.713-1.875
				c0-0.653,0.201-1.236,0.604-1.751c0.51-0.651,1.193-0.979,2.048-0.979c0.88,0,1.583,0.337,2.109,1.003
				c0.375,0.473,0.565,1.062,0.571,1.767h-4.648c0.012,0.601,0.204,1.092,0.576,1.476c0.37,0.385,0.829,0.578,1.373,0.578
				c0.263,0,0.519-0.049,0.768-0.141c0.25-0.089,0.461-0.212,0.635-0.363S51.279,50.41,51.483,50.072z M51.483,48.682
				c-0.089-0.354-0.219-0.64-0.388-0.85c-0.169-0.212-0.394-0.384-0.672-0.513c-0.28-0.13-0.573-0.196-0.881-0.196
				c-0.507,0-0.941,0.164-1.306,0.491c-0.268,0.235-0.469,0.593-0.604,1.067H51.483z"/>
			<path fill="#FFFFFF" d="M49.572,52.019c-0.872,0-1.562-0.29-2.054-0.861c-0.489-0.571-0.737-1.224-0.737-1.94
				c0-0.673,0.21-1.282,0.625-1.812c0.529-0.676,1.245-1.018,2.127-1.018c0.907,0,1.643,0.35,2.188,1.041
				c0.387,0.488,0.586,1.103,0.592,1.827l0,0.101h-4.645c0.03,0.526,0.213,0.965,0.544,1.307c0.35,0.363,0.787,0.548,1.301,0.548
				c0.245,0,0.491-0.046,0.733-0.135c0.234-0.083,0.437-0.199,0.604-0.345c0.166-0.145,0.35-0.384,0.546-0.711l0.049-0.081
				l0.729,0.385l-0.044,0.088c-0.187,0.371-0.409,0.675-0.658,0.903c-0.244,0.226-0.528,0.403-0.843,0.525
				C50.318,51.959,49.962,52.019,49.572,52.019z M49.533,46.586c-0.818,0-1.48,0.317-1.97,0.941
				c-0.387,0.494-0.583,1.062-0.583,1.689c0,0.668,0.231,1.276,0.689,1.81s1.08,0.793,1.902,0.793c0.366,0,0.697-0.057,0.986-0.167
				c0.295-0.114,0.55-0.272,0.78-0.485c0.212-0.194,0.403-0.449,0.569-0.759l-0.388-0.205c-0.189,0.305-0.369,0.532-0.537,0.678
				c-0.186,0.162-0.411,0.291-0.667,0.382c-0.263,0.098-0.533,0.146-0.801,0.146c-0.57,0-1.056-0.204-1.445-0.608
				c-0.388-0.4-0.591-0.92-0.604-1.543l-0.002-0.102h4.648c-0.022-0.636-0.206-1.175-0.547-1.604
				C51.058,46.911,50.375,46.586,49.533,46.586z M51.611,48.781H47.5l0.036-0.127c0.141-0.494,0.354-0.869,0.634-1.115
				c0.381-0.342,0.843-0.516,1.372-0.516c0.318,0,0.629,0.068,0.923,0.205c0.291,0.135,0.529,0.316,0.708,0.541
				c0.176,0.219,0.313,0.518,0.407,0.888L51.611,48.781z M47.767,48.582h3.584c-0.084-0.285-0.196-0.516-0.335-0.688
				c-0.16-0.2-0.374-0.363-0.636-0.484c-0.268-0.124-0.55-0.188-0.839-0.188c-0.485,0-0.89,0.152-1.239,0.466
				C48.075,47.889,47.896,48.189,47.767,48.582z"/>
		</g>
		<g>
			<path fill="#FFFFFF" d="M56.488,47.187l-0.427,0.442c-0.355-0.345-0.704-0.517-1.042-0.517c-0.217,0-0.401,0.067-0.555,0.21
				c-0.155,0.144-0.231,0.31-0.231,0.5c0,0.167,0.063,0.327,0.191,0.479c0.126,0.154,0.392,0.336,0.798,0.548
				c0.495,0.255,0.832,0.502,1.008,0.739c0.174,0.242,0.262,0.513,0.262,0.813c0,0.422-0.148,0.781-0.446,1.076
				c-0.298,0.294-0.67,0.44-1.118,0.44c-0.298,0-0.582-0.062-0.853-0.193c-0.271-0.132-0.497-0.31-0.674-0.535l0.418-0.477
				c0.339,0.384,0.699,0.574,1.08,0.574c0.267,0,0.494-0.086,0.682-0.256c0.187-0.173,0.281-0.371,0.281-0.604
				c0-0.19-0.062-0.359-0.186-0.508c-0.124-0.146-0.403-0.328-0.837-0.551c-0.467-0.241-0.784-0.476-0.952-0.71
				c-0.168-0.236-0.253-0.504-0.253-0.805c0-0.392,0.135-0.717,0.403-0.979c0.268-0.258,0.605-0.39,1.015-0.39
				C55.527,46.487,56.006,46.722,56.488,47.187z"/>
			<path fill="#FFFFFF" d="M54.927,52.019c-0.315,0-0.617-0.068-0.896-0.203c-0.286-0.139-0.524-0.328-0.709-0.563l-0.051-0.065
				l0.548-0.624l0.075,0.085c0.317,0.358,0.655,0.541,1.005,0.541c0.243,0,0.444-0.075,0.614-0.23
				c0.167-0.154,0.248-0.327,0.248-0.53c0-0.167-0.053-0.312-0.163-0.443c-0.111-0.132-0.382-0.309-0.806-0.526
				c-0.488-0.252-0.811-0.494-0.987-0.74c-0.181-0.253-0.272-0.544-0.272-0.863c0-0.416,0.146-0.769,0.433-1.05
				c0.289-0.278,0.653-0.418,1.084-0.418c0.498,0,1.005,0.244,1.506,0.728l0.072,0.069l-0.566,0.587l-0.072-0.069
				c-0.334-0.324-0.661-0.489-0.973-0.489c-0.195,0-0.354,0.061-0.487,0.184c-0.134,0.124-0.199,0.264-0.199,0.427
				c0,0.146,0.055,0.281,0.167,0.415c0.116,0.143,0.375,0.318,0.768,0.523c0.505,0.261,0.856,0.52,1.042,0.769
				c0.188,0.261,0.282,0.554,0.282,0.873c0,0.448-0.16,0.835-0.476,1.147C55.8,51.862,55.4,52.019,54.927,52.019z M53.532,51.193
				c0.158,0.182,0.354,0.331,0.586,0.443c0.255,0.123,0.52,0.184,0.809,0.184c0.424,0,0.767-0.135,1.048-0.412
				c0.276-0.273,0.417-0.611,0.417-1.005c0-0.28-0.08-0.527-0.243-0.755c-0.167-0.224-0.494-0.463-0.973-0.709
				c-0.424-0.222-0.695-0.409-0.83-0.573c-0.141-0.169-0.213-0.352-0.213-0.543c0-0.219,0.088-0.412,0.263-0.573
				c0.168-0.157,0.378-0.236,0.623-0.236c0.341,0,0.69,0.16,1.039,0.476l0.288-0.298c-0.438-0.401-0.873-0.604-1.294-0.604
				c-0.383,0-0.692,0.119-0.945,0.362c-0.25,0.244-0.372,0.541-0.372,0.906c0,0.281,0.077,0.525,0.234,0.747
				c0.155,0.217,0.464,0.445,0.917,0.679c0.46,0.236,0.736,0.419,0.868,0.575c0.139,0.167,0.209,0.359,0.209,0.572
				c0,0.258-0.105,0.486-0.313,0.678c-0.207,0.188-0.459,0.282-0.75,0.282c-0.38,0-0.742-0.176-1.078-0.524L53.532,51.193z"/>
		</g>
		<g>
			<path fill="#FFFFFF" d="M66.381,46.621v5.166h-0.656v-0.889c-0.278,0.339-0.591,0.596-0.937,0.765
				c-0.347,0.173-0.726,0.256-1.138,0.256c-0.731,0-1.355-0.265-1.873-0.794C61.259,50.595,61,49.949,61,49.192
				c0-0.744,0.261-1.381,0.783-1.91c0.523-0.529,1.151-0.795,1.886-0.795c0.424,0,0.808,0.093,1.151,0.271
				c0.344,0.182,0.646,0.453,0.904,0.813v-0.949H66.381z M63.724,47.129c-0.37,0-0.713,0.089-1.025,0.273
				c-0.313,0.182-0.562,0.438-0.746,0.766c-0.187,0.329-0.279,0.675-0.279,1.044c0,0.363,0.095,0.711,0.28,1.044
				c0.188,0.33,0.438,0.589,0.753,0.773c0.313,0.185,0.651,0.28,1.012,0.28c0.363,0,0.709-0.093,1.033-0.277
				c0.325-0.184,0.577-0.432,0.753-0.743c0.175-0.316,0.264-0.667,0.264-1.06c0-0.598-0.197-1.098-0.592-1.499
				C64.783,47.328,64.299,47.129,63.724,47.129z"/>
			<path fill="#FFFFFF" d="M63.65,52.019c-0.756,0-1.41-0.277-1.944-0.823c-0.535-0.547-0.806-1.222-0.806-2.004
				c0-0.769,0.272-1.435,0.812-1.98c0.541-0.547,1.199-0.824,1.957-0.824c0.433,0,0.836,0.095,1.197,0.281
				c0.279,0.147,0.533,0.354,0.759,0.614v-0.761h0.855v5.365h-0.855v-0.725c-0.243,0.254-0.509,0.452-0.793,0.591
				C64.478,51.93,64.08,52.019,63.65,52.019z M63.669,46.586c-0.702,0-1.312,0.258-1.814,0.766c-0.501,0.507-0.755,1.126-0.755,1.84
				c0,0.729,0.252,1.355,0.749,1.863c0.496,0.507,1.102,0.765,1.802,0.765c0.398,0,0.767-0.083,1.093-0.246
				c0.33-0.161,0.634-0.409,0.904-0.738l0.177-0.216v1.068h0.457v-4.967h-0.457v1.16l-0.181-0.252
				c-0.249-0.347-0.541-0.61-0.87-0.783C64.441,46.674,64.069,46.586,63.669,46.586z M63.719,51.409
				c-0.374,0-0.731-0.099-1.062-0.294c-0.327-0.191-0.593-0.464-0.789-0.81c-0.194-0.35-0.293-0.718-0.293-1.094
				c0-0.383,0.098-0.751,0.292-1.093c0.194-0.345,0.458-0.615,0.783-0.804c0.321-0.189,0.684-0.286,1.075-0.286
				c0.601,0,1.113,0.212,1.523,0.631c0.412,0.419,0.62,0.947,0.62,1.569c0,0.403-0.093,0.776-0.275,1.108
				c-0.185,0.326-0.451,0.589-0.792,0.781C64.463,51.312,64.098,51.409,63.719,51.409z M63.724,47.229
				c-0.355,0-0.683,0.088-0.975,0.26c-0.295,0.171-0.533,0.416-0.71,0.729c-0.179,0.316-0.267,0.642-0.267,0.995
				c0,0.342,0.091,0.677,0.268,0.995c0.179,0.314,0.42,0.562,0.717,0.736c0.607,0.357,1.337,0.351,1.944,0.002
				c0.31-0.175,0.55-0.412,0.716-0.705c0.168-0.306,0.251-0.637,0.251-1.011c0-0.568-0.189-1.049-0.563-1.429
				C64.729,47.416,64.277,47.229,63.724,47.229z"/>
		</g>
		<g>
			<path fill="#FFFFFF" d="M72.767,46.621h0.665v4.117c0,0.726-0.062,1.255-0.19,1.591c-0.175,0.473-0.477,0.839-0.906,1.095
				c-0.432,0.259-0.949,0.387-1.554,0.387c-0.442,0-0.841-0.062-1.193-0.19c-0.354-0.124-0.641-0.292-0.862-0.502
				c-0.222-0.212-0.426-0.521-0.613-0.929h0.723c0.196,0.342,0.449,0.595,0.76,0.762c0.312,0.164,0.697,0.247,1.156,0.247
				c0.454,0,0.836-0.086,1.148-0.253c0.312-0.17,0.533-0.384,0.668-0.637c0.132-0.257,0.199-0.669,0.199-1.238v-0.268
				c-0.251,0.319-0.557,0.56-0.918,0.729c-0.36,0.169-0.744,0.255-1.15,0.255c-0.475,0-0.921-0.118-1.339-0.354
				c-0.418-0.237-0.743-0.554-0.971-0.951c-0.229-0.399-0.342-0.839-0.342-1.315c0-0.479,0.119-0.925,0.356-1.338
				c0.238-0.414,0.566-0.738,0.987-0.979c0.419-0.241,0.861-0.363,1.328-0.363c0.386,0,0.747,0.081,1.08,0.241
				c0.335,0.161,0.657,0.423,0.968,0.791V46.621z M70.806,47.129c-0.376,0-0.727,0.089-1.05,0.273
				c-0.322,0.182-0.575,0.433-0.76,0.753c-0.184,0.322-0.275,0.67-0.275,1.045c0,0.564,0.19,1.034,0.569,1.403
				c0.381,0.372,0.873,0.557,1.478,0.557c0.61,0,1.102-0.185,1.474-0.551c0.372-0.369,0.56-0.85,0.56-1.448
				c0-0.39-0.086-0.738-0.258-1.041c-0.17-0.307-0.413-0.547-0.726-0.727C71.505,47.218,71.169,47.129,70.806,47.129z"/>
			<path fill="#FFFFFF" d="M70.782,53.91c-0.455,0-0.868-0.065-1.228-0.196c-0.362-0.126-0.664-0.303-0.896-0.523
				c-0.229-0.219-0.443-0.542-0.636-0.959l-0.065-0.142h0.937l0.029,0.05c0.186,0.322,0.428,0.566,0.72,0.724
				c0.297,0.155,0.67,0.235,1.109,0.235c0.432,0,0.802-0.081,1.102-0.241c0.289-0.158,0.5-0.358,0.627-0.596
				c0.124-0.242,0.188-0.644,0.188-1.191V51.07c-0.222,0.229-0.481,0.415-0.775,0.554c-0.375,0.175-0.776,0.264-1.193,0.264
				c-0.489,0-0.956-0.123-1.388-0.366c-0.436-0.247-0.774-0.579-1.009-0.988c-0.235-0.412-0.354-0.871-0.354-1.365
				s0.124-0.961,0.369-1.388c0.245-0.425,0.59-0.768,1.024-1.017c0.434-0.25,0.897-0.376,1.378-0.376
				c0.399,0,0.777,0.084,1.123,0.251c0.284,0.137,0.562,0.345,0.825,0.62v-0.736h0.864v4.217c0,0.746-0.064,1.278-0.196,1.626
				c-0.183,0.494-0.502,0.88-0.949,1.146C71.943,53.776,71.403,53.91,70.782,53.91z M68.272,52.289
				c0.162,0.326,0.338,0.58,0.523,0.757c0.212,0.2,0.489,0.362,0.826,0.479c0.338,0.123,0.729,0.186,1.16,0.186
				c0.585,0,1.09-0.126,1.502-0.373c0.407-0.242,0.697-0.593,0.864-1.044c0.122-0.321,0.185-0.844,0.185-1.556v-4.018h-0.466v1.071
				l-0.176-0.209c-0.298-0.353-0.612-0.61-0.935-0.766c-0.319-0.153-0.668-0.231-1.037-0.231c-0.445,0-0.875,0.118-1.278,0.351
				c-0.409,0.234-0.721,0.543-0.95,0.942c-0.228,0.396-0.344,0.83-0.344,1.288c0,0.459,0.111,0.885,0.329,1.266
				c0.216,0.378,0.53,0.686,0.934,0.914c0.742,0.418,1.643,0.449,2.397,0.095c0.353-0.166,0.642-0.396,0.881-0.7l0.179-0.228v0.557
				c0,0.58-0.07,1.012-0.21,1.284c-0.146,0.273-0.384,0.501-0.709,0.679c-0.329,0.176-0.731,0.265-1.196,0.265
				c-0.473,0-0.877-0.087-1.203-0.258c-0.312-0.168-0.569-0.42-0.77-0.751H68.272z M70.768,51.26c-0.629,0-1.15-0.196-1.548-0.585
				c-0.397-0.388-0.599-0.884-0.599-1.475c0-0.391,0.097-0.759,0.288-1.095c0.193-0.335,0.462-0.601,0.798-0.79
				c0.646-0.371,1.485-0.389,2.159-0.009c0.332,0.19,0.588,0.447,0.765,0.765c0.179,0.316,0.27,0.683,0.27,1.09
				c0,0.62-0.198,1.132-0.589,1.52C71.922,51.066,71.402,51.26,70.768,51.26z M70.806,47.229c-0.361,0-0.698,0.088-1,0.261
				c-0.305,0.172-0.548,0.413-0.723,0.716c-0.174,0.305-0.263,0.64-0.263,0.995c0,0.535,0.182,0.983,0.539,1.332
				c0.364,0.355,0.825,0.528,1.408,0.528c0.579,0,1.052-0.176,1.403-0.522c0.356-0.354,0.53-0.804,0.53-1.377
				c0-0.372-0.083-0.706-0.245-0.991c-0.158-0.286-0.39-0.518-0.688-0.689C71.467,47.312,71.152,47.229,70.806,47.229z"/>
		</g>
		<g>
			<path fill="#FFFFFF" d="M75.043,46.621h0.678v0.756c0.205-0.298,0.417-0.521,0.642-0.667c0.225-0.148,0.459-0.224,0.704-0.224
				c0.183,0,0.379,0.061,0.588,0.177l-0.347,0.562c-0.139-0.06-0.257-0.093-0.352-0.093c-0.222,0-0.435,0.093-0.642,0.273
				c-0.204,0.182-0.361,0.465-0.469,0.849c-0.083,0.295-0.125,0.889-0.125,1.784v1.749h-0.678V46.621z"/>
			<path fill="#FFFFFF" d="M75.82,51.887h-0.877v-5.365h0.877v0.555c0.159-0.192,0.319-0.342,0.487-0.45
				c0.421-0.278,0.865-0.345,1.396-0.05l0.091,0.051l-0.446,0.724l-0.079-0.034c-0.131-0.056-0.236-0.085-0.312-0.085
				c-0.195,0-0.384,0.082-0.576,0.249c-0.188,0.168-0.336,0.438-0.438,0.801c-0.081,0.285-0.122,0.877-0.122,1.757V51.887z
				 M75.142,51.688h0.479v-1.649c0-0.911,0.042-1.504,0.128-1.812c0.112-0.399,0.28-0.701,0.499-0.896
				c0.228-0.199,0.465-0.299,0.708-0.299c0.087,0,0.188,0.022,0.311,0.068l0.246-0.398c-0.16-0.077-0.311-0.116-0.446-0.116
				c-0.223,0-0.441,0.07-0.649,0.207c-0.211,0.137-0.411,0.347-0.614,0.641l-0.182,0.265v-0.978h-0.479V51.688z"/>
		</g>
		<g>
			<path fill="#FFFFFF" d="M79.218,44.197h1.021l-1.4,1.465h-0.655L79.218,44.197z M78.557,46.621h0.665v5.166h-0.665V46.621z"/>
			<path fill="#FFFFFF" d="M79.322,51.887h-0.864v-5.365h0.864V51.887z M78.657,51.688h0.466v-4.967h-0.466V51.688z M78.881,45.761
				h-0.892l1.177-1.664h1.307L78.881,45.761z M78.376,45.562h0.419l1.209-1.266h-0.734L78.376,45.562z"/>
		</g>
		<g>
			<path fill="#FFFFFF" d="M86.056,47.695l-0.526,0.328c-0.459-0.604-1.078-0.907-1.866-0.907c-0.631,0-1.151,0.201-1.568,0.606
				c-0.416,0.403-0.624,0.898-0.624,1.476c0,0.375,0.095,0.731,0.288,1.062c0.19,0.333,0.452,0.59,0.786,0.773
				c0.336,0.185,0.708,0.277,1.124,0.277c0.759,0,1.377-0.304,1.86-0.907l0.526,0.345c-0.247,0.372-0.579,0.659-0.997,0.865
				c-0.417,0.205-0.89,0.307-1.423,0.307c-0.815,0-1.493-0.259-2.031-0.777c-0.538-0.52-0.806-1.15-0.806-1.895
				c0-0.499,0.125-0.963,0.377-1.396c0.25-0.428,0.599-0.761,1.035-1.002c0.44-0.241,0.935-0.363,1.479-0.363
				c0.342,0,0.673,0.054,0.991,0.158s0.587,0.241,0.811,0.407C85.712,47.222,85.899,47.433,86.056,47.695z"/>
			<path fill="#FFFFFF" d="M83.636,52.019c-0.84,0-1.546-0.271-2.101-0.805c-0.555-0.536-0.836-1.197-0.836-1.967
				c0-0.515,0.131-1.001,0.391-1.446c0.255-0.437,0.616-0.786,1.072-1.039c0.456-0.249,0.97-0.375,1.527-0.375
				c0.349,0,0.692,0.055,1.022,0.163c0.322,0.105,0.604,0.247,0.839,0.422c0.235,0.182,0.429,0.401,0.591,0.671l0.051,0.085
				l-0.688,0.428l-0.056-0.072c-0.443-0.584-1.027-0.868-1.786-0.868c-0.608,0-1.099,0.189-1.499,0.578
				c-0.394,0.383-0.594,0.854-0.594,1.404c0,0.36,0.093,0.7,0.274,1.011c0.181,0.315,0.432,0.562,0.748,0.736
				c0.325,0.179,0.677,0.266,1.076,0.266c0.73,0,1.313-0.285,1.782-0.87l0.057-0.071l0.687,0.45l-0.056,0.084
				c-0.254,0.383-0.603,0.686-1.036,0.899C84.676,51.912,84.182,52.019,83.636,52.019z M83.69,46.586
				c-0.524,0-1.005,0.118-1.431,0.352c-0.424,0.234-0.76,0.559-0.997,0.965c-0.24,0.413-0.363,0.866-0.363,1.345
				c0,0.723,0.254,1.319,0.775,1.822c0.516,0.497,1.176,0.75,1.962,0.75c0.515,0,0.979-0.101,1.379-0.297
				c0.369-0.182,0.671-0.434,0.9-0.748l-0.365-0.239c-0.494,0.58-1.127,0.874-1.881,0.874c-0.428,0-0.822-0.097-1.172-0.289
				s-0.627-0.465-0.825-0.812c-0.199-0.341-0.301-0.715-0.301-1.111c0-0.605,0.22-1.126,0.654-1.548
				c0.433-0.421,0.984-0.634,1.638-0.634c0.782,0,1.418,0.294,1.89,0.875l0.365-0.229c-0.138-0.21-0.298-0.385-0.488-0.531
				c-0.216-0.16-0.479-0.292-0.78-0.392C84.341,46.638,84.017,46.586,83.69,46.586z"/>
		</g>
		<g>
			<path fill="#FFFFFF" d="M90.217,46.487c0.798,0,1.458,0.289,1.982,0.866c0.472,0.526,0.71,1.147,0.71,1.864
				c0,0.725-0.249,1.354-0.753,1.894c-0.502,0.541-1.147,0.809-1.939,0.809c-0.791,0-1.439-0.268-1.941-0.809
				c-0.504-0.539-0.753-1.169-0.753-1.894c0-0.714,0.237-1.335,0.711-1.861C88.756,46.779,89.42,46.487,90.217,46.487z
				 M90.214,47.138c-0.551,0-1.025,0.206-1.422,0.614c-0.398,0.406-0.598,0.9-0.598,1.48c0,0.375,0.092,0.723,0.274,1.044
				c0.179,0.324,0.425,0.572,0.731,0.747c0.309,0.179,0.647,0.265,1.014,0.265c0.369,0,0.709-0.086,1.018-0.265
				c0.307-0.175,0.554-0.423,0.731-0.747c0.182-0.321,0.274-0.669,0.274-1.044c0-0.58-0.2-1.074-0.598-1.48
				C91.24,47.344,90.764,47.138,90.214,47.138z"/>
			<path fill="#FFFFFF" d="M90.217,52.019c-0.819,0-1.497-0.282-2.015-0.84c-0.518-0.554-0.779-1.214-0.779-1.962
				c0-0.736,0.247-1.385,0.736-1.928c0.542-0.6,1.234-0.902,2.058-0.902c0.822,0,1.515,0.302,2.057,0.898
				c0.488,0.545,0.735,1.195,0.735,1.932c0,0.748-0.262,1.408-0.779,1.962C91.712,51.737,91.035,52.019,90.217,52.019z
				 M90.217,46.586c-0.765,0-1.407,0.282-1.909,0.837c-0.455,0.505-0.686,1.108-0.686,1.794c0,0.706,0.238,1.303,0.727,1.825
				c0.479,0.516,1.106,0.777,1.868,0.777c0.771,0,1.381-0.255,1.866-0.777c0.488-0.522,0.727-1.119,0.727-1.825
				c0-0.686-0.23-1.291-0.685-1.798C91.623,46.867,90.98,46.586,90.217,46.586z M90.214,51.388c-0.387,0-0.745-0.093-1.063-0.277
				c-0.325-0.186-0.584-0.45-0.77-0.786c-0.189-0.334-0.286-0.702-0.286-1.092c0-0.605,0.21-1.127,0.626-1.551
				c0.415-0.427,0.918-0.644,1.493-0.644s1.079,0.217,1.497,0.644c0.416,0.425,0.626,0.946,0.626,1.551
				c0,0.388-0.097,0.756-0.287,1.093c-0.183,0.334-0.441,0.599-0.769,0.785C90.963,51.295,90.603,51.388,90.214,51.388z
				 M90.214,47.238c-0.52,0-0.974,0.197-1.351,0.584c-0.378,0.386-0.569,0.86-0.569,1.411c0,0.354,0.088,0.689,0.262,0.994
				c0.168,0.305,0.401,0.543,0.694,0.71c0.288,0.167,0.612,0.252,0.964,0.252c0.354,0,0.68-0.085,0.968-0.252
				c0.295-0.168,0.528-0.406,0.693-0.708c0.175-0.309,0.263-0.643,0.263-0.996c0-0.55-0.191-1.024-0.569-1.41
				C91.188,47.435,90.733,47.238,90.214,47.238z"/>
		</g>
		<g>
			<path fill="#FFFFFF" d="M94.477,44.625h0.666v7.162h-0.666V44.625z"/>
			<path fill="#FFFFFF" d="M95.243,51.887h-0.865v-7.361h0.865V51.887z M94.577,51.688h0.467v-6.963h-0.467V51.688z"/>
		</g>
		<g>
			<path fill="#FFFFFF" d="M102.11,46.621v5.166h-0.657v-0.889c-0.277,0.339-0.589,0.596-0.938,0.765
				c-0.345,0.173-0.726,0.256-1.136,0.256c-0.732,0-1.356-0.265-1.875-0.794c-0.518-0.53-0.775-1.176-0.775-1.934
				c0-0.744,0.261-1.381,0.781-1.91c0.524-0.529,1.152-0.795,1.887-0.795c0.425,0,0.81,0.093,1.151,0.271
				c0.345,0.182,0.646,0.453,0.904,0.813v-0.949H102.11z M99.454,47.129c-0.372,0-0.714,0.089-1.026,0.273
				c-0.312,0.182-0.562,0.438-0.747,0.766c-0.184,0.329-0.276,0.675-0.276,1.044c0,0.363,0.093,0.711,0.279,1.044
				c0.188,0.33,0.438,0.589,0.753,0.773c0.312,0.185,0.651,0.28,1.012,0.28c0.362,0,0.707-0.093,1.032-0.277
				c0.327-0.184,0.576-0.432,0.752-0.743c0.176-0.316,0.266-0.667,0.266-1.06c0-0.598-0.196-1.098-0.593-1.499
				C100.512,47.328,100.028,47.129,99.454,47.129z"/>
			<path fill="#FFFFFF" d="M99.38,52.019c-0.756,0-1.411-0.276-1.946-0.823c-0.533-0.547-0.804-1.221-0.804-2.004
				c0-0.768,0.272-1.434,0.81-1.98c0.542-0.547,1.201-0.824,1.958-0.824c0.435,0,0.838,0.095,1.197,0.281
				c0.279,0.146,0.533,0.353,0.759,0.613v-0.76h0.856v5.365h-0.856v-0.724c-0.243,0.254-0.51,0.452-0.794,0.59
				C100.208,51.93,99.81,52.019,99.38,52.019z M99.397,46.586c-0.702,0-1.312,0.258-1.815,0.766
				c-0.499,0.508-0.753,1.127-0.753,1.84c0,0.729,0.252,1.355,0.747,1.863c0.497,0.507,1.104,0.765,1.804,0.765
				c0.399,0,0.767-0.083,1.091-0.246c0.331-0.16,0.635-0.408,0.905-0.738l0.177-0.217v1.069h0.458v-4.967h-0.458v1.16l-0.181-0.252
				c-0.249-0.348-0.542-0.611-0.87-0.783C100.172,46.674,99.8,46.586,99.397,46.586z M99.448,51.409
				c-0.375,0-0.732-0.099-1.062-0.294c-0.327-0.191-0.593-0.464-0.789-0.81c-0.194-0.347-0.292-0.715-0.292-1.094
				c0-0.381,0.097-0.749,0.289-1.093c0.193-0.343,0.457-0.613,0.784-0.804c0.321-0.189,0.685-0.286,1.076-0.286
				c0.602,0,1.113,0.212,1.522,0.631c0.412,0.418,0.621,0.945,0.621,1.569c0,0.403-0.093,0.775-0.277,1.108
				c-0.186,0.328-0.452,0.591-0.791,0.781C100.19,51.312,99.826,51.409,99.448,51.409z M99.454,47.229
				c-0.36,0-0.68,0.085-0.976,0.26c-0.296,0.172-0.535,0.417-0.711,0.729c-0.177,0.318-0.264,0.644-0.264,0.995
				c0,0.345,0.09,0.68,0.267,0.995c0.179,0.314,0.42,0.562,0.717,0.736c0.604,0.355,1.331,0.351,1.943,0.002
				c0.308-0.173,0.548-0.41,0.715-0.705c0.17-0.307,0.253-0.637,0.253-1.011c0-0.569-0.19-1.05-0.564-1.429
				C100.464,47.421,100,47.229,99.454,47.229z"/>
		</g>
		<g>
			<path fill="#FFFFFF" d="M106.64,47.187l-0.428,0.442c-0.354-0.345-0.702-0.517-1.042-0.517c-0.217,0-0.401,0.067-0.557,0.21
				c-0.154,0.144-0.229,0.31-0.229,0.5c0,0.167,0.062,0.327,0.19,0.479c0.125,0.154,0.394,0.336,0.797,0.548
				c0.498,0.255,0.834,0.502,1.009,0.739c0.176,0.242,0.262,0.513,0.262,0.813c0,0.422-0.148,0.781-0.446,1.076
				c-0.298,0.294-0.669,0.44-1.118,0.44c-0.297,0-0.58-0.062-0.854-0.193c-0.271-0.132-0.494-0.31-0.673-0.535l0.419-0.477
				c0.34,0.384,0.7,0.574,1.081,0.574c0.265,0,0.493-0.086,0.681-0.256c0.188-0.173,0.279-0.371,0.279-0.604
				c0-0.19-0.062-0.359-0.184-0.508c-0.126-0.146-0.404-0.328-0.84-0.551c-0.467-0.241-0.781-0.476-0.951-0.71
				c-0.166-0.236-0.254-0.504-0.254-0.805c0-0.392,0.135-0.717,0.402-0.979c0.271-0.258,0.606-0.39,1.018-0.39
				C105.68,46.487,106.158,46.722,106.64,47.187z"/>
			<path fill="#FFFFFF" d="M105.079,52.019c-0.313,0-0.615-0.068-0.896-0.203c-0.283-0.138-0.521-0.327-0.708-0.562l-0.052-0.065
				l0.549-0.625l0.075,0.085c0.317,0.358,0.656,0.541,1.006,0.541c0.238,0,0.445-0.078,0.613-0.23
				c0.166-0.152,0.247-0.326,0.247-0.53c0-0.167-0.053-0.312-0.161-0.444c-0.114-0.132-0.386-0.31-0.809-0.525
				c-0.483-0.25-0.807-0.492-0.986-0.74c-0.182-0.258-0.272-0.548-0.272-0.863c0-0.416,0.146-0.77,0.432-1.05
				c0.292-0.278,0.657-0.418,1.088-0.418c0.498,0,1.005,0.244,1.506,0.728l0.072,0.069l-0.567,0.587l-0.071-0.07
				c-0.334-0.323-0.661-0.488-0.973-0.488c-0.194,0-0.354,0.061-0.489,0.184c-0.132,0.123-0.196,0.263-0.196,0.427
				c0,0.146,0.055,0.281,0.167,0.415c0.114,0.14,0.371,0.315,0.768,0.523c0.507,0.26,0.858,0.519,1.042,0.769
				c0.188,0.258,0.281,0.551,0.281,0.873c0,0.448-0.16,0.835-0.476,1.147C105.952,51.862,105.552,52.019,105.079,52.019z
				 M103.684,51.193c0.16,0.185,0.353,0.33,0.585,0.443c0.258,0.123,0.522,0.184,0.81,0.184c0.425,0,0.768-0.135,1.048-0.412
				c0.276-0.273,0.417-0.611,0.417-1.005c0-0.283-0.08-0.529-0.243-0.755c-0.165-0.225-0.493-0.463-0.974-0.709
				c-0.427-0.224-0.697-0.412-0.829-0.574c-0.141-0.167-0.212-0.351-0.212-0.542c0-0.22,0.087-0.412,0.26-0.573
				c0.172-0.157,0.382-0.236,0.625-0.236c0.342,0,0.691,0.16,1.039,0.476l0.288-0.298c-0.438-0.401-0.873-0.604-1.294-0.604
				c-0.383,0-0.693,0.119-0.948,0.362c-0.25,0.244-0.372,0.541-0.372,0.906c0,0.273,0.08,0.524,0.236,0.747
				c0.158,0.218,0.466,0.446,0.915,0.679c0.451,0.23,0.735,0.419,0.87,0.574c0.138,0.168,0.207,0.36,0.207,0.573
				c0,0.263-0.102,0.484-0.312,0.678c-0.206,0.188-0.458,0.282-0.748,0.282c-0.381,0-0.743-0.176-1.079-0.524L103.684,51.193z"/>
		</g>
	</g>
	<g>
		<path fill="#FFFFFF" d="M106.671,32.933c0-2.181,1.768-3.948,3.944-3.948l0,0c2.181,0,3.944,1.767,3.944,3.948l0,0
			c0,2.179-1.764,3.944-3.944,3.944l0,0C108.438,36.877,106.671,35.112,106.671,32.933L106.671,32.933z M107.313,32.933
			c0.003,1.823,1.479,3.298,3.302,3.304l0,0c1.824-0.006,3.299-1.48,3.302-3.304l0,0c-0.003-1.825-1.478-3.301-3.302-3.304l0,0
			C108.792,29.632,107.316,31.108,107.313,32.933L107.313,32.933z"/>
		<g>
			<g>
				<path fill="#FFFFFF" d="M109.103,30.571h0.943c0.523,0,0.877,0.021,1.064,0.064c0.28,0.063,0.51,0.202,0.686,0.413
					c0.175,0.211,0.262,0.471,0.262,0.779c0,0.258-0.061,0.483-0.182,0.679c-0.119,0.196-0.292,0.344-0.519,0.44
					c-0.223,0.101-0.535,0.153-0.931,0.154l1.698,2.194h-0.583l-1.698-2.194h-0.268v2.194h-0.474V30.571z M109.577,31.033v1.604
					l0.812,0.008c0.316,0,0.551-0.031,0.702-0.091c0.152-0.06,0.268-0.156,0.354-0.288c0.083-0.131,0.125-0.278,0.125-0.44
					c0-0.159-0.042-0.304-0.129-0.432c-0.086-0.129-0.198-0.223-0.339-0.278c-0.136-0.055-0.369-0.083-0.692-0.083H109.577z"/>
			</g>
		</g>
	</g>
	<g>
		<path fill="#FFFFFF" d="M8.294,33.345l7.34-21.27c0.382-1.105,0.842-1.934,1.379-2.487c0.537-0.552,1.08-0.828,1.628-0.828
			c0.566,0,0.931,0.273,1.093,0.819c0.162,0.546,0.049,1.379-0.336,2.497l-7.34,21.27c-0.387,1.117-0.849,1.953-1.391,2.504
			c-0.542,0.554-1.095,0.829-1.662,0.829c-0.542,0-0.889-0.279-1.047-0.838C7.8,35.282,7.913,34.449,8.294,33.345z"/>
		<path fill="#FFFFFF" d="M32.19,28.115c-0.564,1.631-1.36,3.1-2.387,4.401c-1.028,1.302-2.227,2.321-3.597,3.057
			c-1.37,0.737-2.818,1.105-4.349,1.105c-1.833,0-3.171-0.503-4.016-1.51c-0.595-0.725-0.947-1.69-1.057-2.901
			c-0.112-1.208,0.031-2.385,0.425-3.526c0.228-0.663,0.583-1.231,1.062-1.704c0.48-0.472,0.965-0.708,1.456-0.708
			c0.397,0,0.669,0.185,0.816,0.552c0.147,0.369,0.193,0.915,0.139,1.639c-0.062,0.859-0.054,1.578,0.022,2.155
			c0.076,0.577,0.297,1.053,0.668,1.426c0.369,0.375,0.959,0.562,1.77,0.562c1.116,0,2.152-0.378,3.11-1.132
			c0.958-0.756,1.63-1.697,2.02-2.828c0.31-0.896,0.373-1.623,0.19-2.182c-0.185-0.56-0.522-0.985-1.016-1.281
			c-0.494-0.295-1.183-0.607-2.066-0.939c-1.178-0.453-2.112-0.986-2.802-1.593c-0.69-0.608-1.117-1.437-1.284-2.485
			c-0.167-1.051,0.021-2.354,0.557-3.915c0.514-1.485,1.249-2.806,2.205-3.959c0.955-1.153,2.069-2.041,3.339-2.661
			c1.269-0.62,2.619-0.929,4.047-0.929c1.141,0,2.056,0.205,2.746,0.617c0.69,0.41,1.193,0.958,1.507,1.639
			c0.313,0.682,0.468,1.396,0.463,2.145c-0.004,0.75-0.131,1.48-0.376,2.191c-0.225,0.652-0.586,1.238-1.083,1.759
			c-0.497,0.522-0.982,0.783-1.455,0.783c-0.431,0-0.705-0.156-0.819-0.47c-0.116-0.312-0.183-0.825-0.199-1.537
			c0.014-1.019-0.116-1.814-0.393-2.385c-0.276-0.571-0.938-0.857-1.985-0.857c-0.973,0-1.864,0.311-2.673,0.931
			c-0.809,0.619-1.364,1.365-1.665,2.237c-0.188,0.541-0.247,1.007-0.18,1.399c0.067,0.392,0.229,0.73,0.488,1.013
			c0.256,0.283,0.54,0.503,0.848,0.663c0.308,0.16,0.827,0.393,1.557,0.7c0.925,0.356,1.738,0.75,2.439,1.179
			c0.701,0.43,1.244,0.95,1.627,1.565c0.384,0.614,0.581,1.391,0.591,2.331C32.89,25.601,32.66,26.751,32.19,28.115z"/>
		<path fill="#FFFFFF" d="M45.531,33.16l0.283-3.388h-7.555l-2.083,3.462c-0.812,1.351-1.422,2.262-1.83,2.734
			c-0.409,0.473-0.891,0.709-1.45,0.709c-0.473,0-0.803-0.251-0.993-0.755s-0.174-1.074,0.046-1.713
			c0.126-0.367,0.3-0.748,0.521-1.141c0.221-0.395,0.549-0.94,0.985-1.641l10.803-17.532c0.309-0.502,0.68-1.107,1.114-1.813
			c0.434-0.707,0.839-1.292,1.217-1.76c0.376-0.466,0.788-0.843,1.239-1.132S48.76,8.76,49.276,8.76
			c0.523,0,0.912,0.144,1.163,0.433c0.25,0.289,0.405,0.66,0.464,1.114c0.058,0.454,0.072,0.943,0.04,1.463
			c-0.033,0.522-0.084,1.22-0.157,2.092l-1.159,17.42c-0.078,1.327-0.22,2.291-0.429,2.892c-0.216,0.627-0.594,1.2-1.132,1.723
			c-0.54,0.521-1.062,0.782-1.569,0.782c-0.296,0-0.524-0.078-0.681-0.23c-0.16-0.153-0.263-0.361-0.317-0.625
			c-0.052-0.265-0.067-0.669-0.043-1.217C45.48,34.06,45.505,33.578,45.531,33.16z M40.665,25.665h5.551l1.044-11.142L40.665,25.665
			z"/>
		<path fill="#FFFFFF" d="M68.565,8.76c1.927,0,3.384,0.568,4.375,1.703c0.988,1.136,1.479,2.75,1.464,4.845
			c-0.013,2.093-0.505,4.551-1.48,7.375c-0.721,2.087-1.569,3.983-2.547,5.689c-0.979,1.708-2.07,3.186-3.281,4.438
			c-1.209,1.252-2.494,2.21-3.854,2.872c-1.362,0.664-2.774,0.995-4.235,0.995c-1.453,0-2.637-0.341-3.552-1.022
			c-0.913-0.681-1.541-1.642-1.881-2.882c-0.341-1.239-0.408-2.731-0.198-4.474c0.208-1.743,0.662-3.628,1.361-5.654
			c0.717-2.075,1.578-3.979,2.585-5.71c1.008-1.73,2.109-3.204,3.307-4.419c1.196-1.216,2.464-2.146,3.801-2.791
			C65.768,9.082,67.146,8.76,68.565,8.76z M69.121,22.646c0.683-1.977,1.054-3.69,1.114-5.139c0.062-1.449-0.188-2.543-0.748-3.287
			c-0.558-0.742-1.365-1.114-2.423-1.114c-0.751,0-1.517,0.206-2.297,0.618c-0.779,0.411-1.535,1.009-2.268,1.795
			c-0.731,0.786-1.441,1.79-2.128,3.01c-0.688,1.223-1.296,2.594-1.821,4.117c-0.529,1.535-0.875,2.921-1.037,4.162
			c-0.162,1.24-0.141,2.268,0.063,3.083c0.205,0.818,0.552,1.428,1.041,1.834c0.489,0.404,1.111,0.606,1.862,0.606
			c0.963,0,1.969-0.35,3.018-1.05c1.048-0.699,2.062-1.779,3.046-3.241C67.524,26.58,68.384,24.782,69.121,22.646z"/>
		<path fill="#FFFFFF" d="M87.87,28.115c-0.562,1.631-1.359,3.1-2.387,4.401c-1.031,1.302-2.229,2.321-3.599,3.057
			c-1.37,0.737-2.818,1.105-4.35,1.105c-1.833,0-3.172-0.503-4.016-1.51c-0.595-0.725-0.947-1.69-1.057-2.901
			c-0.112-1.208,0.029-2.385,0.425-3.526c0.228-0.663,0.582-1.231,1.062-1.704c0.48-0.472,0.966-0.708,1.457-0.708
			c0.396,0,0.668,0.185,0.816,0.552c0.146,0.369,0.193,0.915,0.137,1.639c-0.059,0.859-0.052,1.578,0.024,2.155
			c0.074,0.577,0.297,1.053,0.665,1.426c0.371,0.375,0.96,0.562,1.771,0.562c1.115,0,2.151-0.378,3.109-1.132
			c0.958-0.756,1.63-1.697,2.02-2.828c0.31-0.896,0.375-1.623,0.19-2.182c-0.185-0.56-0.521-0.985-1.018-1.281
			c-0.49-0.295-1.181-0.607-2.063-0.939c-1.178-0.453-2.111-0.986-2.802-1.593c-0.689-0.608-1.118-1.437-1.283-2.485
			c-0.167-1.051,0.02-2.354,0.558-3.915c0.514-1.485,1.248-2.806,2.205-3.959c0.954-1.153,2.068-2.041,3.336-2.661
			c1.271-0.62,2.621-0.929,4.051-0.929c1.14,0,2.057,0.205,2.746,0.617c0.69,0.41,1.193,0.958,1.509,1.639
			c0.312,0.682,0.467,1.396,0.463,2.145c-0.005,0.75-0.13,1.48-0.377,2.191c-0.224,0.652-0.586,1.238-1.083,1.759
			c-0.497,0.522-0.982,0.783-1.455,0.783c-0.432,0-0.705-0.156-0.82-0.47c-0.113-0.312-0.183-0.825-0.196-1.537
			c0.012-1.019-0.119-1.814-0.396-2.385c-0.274-0.571-0.938-0.857-1.986-0.857c-0.975,0-1.863,0.311-2.673,0.931
			c-0.812,0.619-1.365,1.365-1.666,2.237c-0.188,0.541-0.247,1.007-0.182,1.399c0.069,0.392,0.232,0.73,0.488,1.013
			c0.259,0.283,0.542,0.503,0.849,0.663c0.309,0.16,0.83,0.393,1.559,0.7c0.924,0.356,1.738,0.75,2.439,1.179
			c0.704,0.43,1.245,0.95,1.63,1.565c0.384,0.614,0.58,1.391,0.589,2.331C88.572,25.601,88.34,26.751,87.87,28.115z"/>
		<path fill="#FFFFFF" d="M101.212,33.16l0.283-3.388h-7.557l-2.082,3.462c-0.812,1.351-1.422,2.262-1.83,2.734
			c-0.407,0.473-0.893,0.709-1.448,0.709c-0.473,0-0.807-0.251-0.994-0.755c-0.19-0.504-0.175-1.074,0.046-1.713
			c0.127-0.367,0.3-0.748,0.52-1.141c0.221-0.395,0.551-0.94,0.984-1.641l10.806-17.532c0.309-0.502,0.678-1.107,1.112-1.813
			c0.435-0.707,0.838-1.292,1.216-1.76c0.378-0.466,0.789-0.843,1.241-1.132c0.449-0.289,0.931-0.433,1.448-0.433
			c0.523,0,0.911,0.144,1.16,0.433c0.253,0.289,0.407,0.66,0.468,1.114c0.056,0.454,0.07,0.943,0.038,1.463
			c-0.032,0.522-0.087,1.22-0.158,2.092l-1.156,17.42c-0.077,1.327-0.221,2.291-0.43,2.892c-0.216,0.627-0.594,1.2-1.133,1.723
			c-0.538,0.521-1.062,0.782-1.57,0.782c-0.295,0-0.521-0.078-0.678-0.23c-0.161-0.153-0.266-0.361-0.319-0.625
			c-0.05-0.265-0.064-0.669-0.041-1.217C101.161,34.06,101.185,33.578,101.212,33.16z M96.344,25.665h5.551l1.045-11.142
			L96.344,25.665z"/>
	</g>
</g>
</svg>
