<?xml version="1.0" encoding="utf-8"?>
<!-- Generator: Adobe Illustrator 16.0.0, SVG Export Plug-In . SVG Version: 6.00 Build 0)  -->
<!DOCTYPE svg PUBLIC "-//W3C//DTD SVG 1.1//EN" "http://www.w3.org/Graphics/SVG/1.1/DTD/svg11.dtd">
<svg version="1.1" id="Capa_1" xmlns="http://www.w3.org/2000/svg" xmlns:xlink="http://www.w3.org/1999/xlink" x="0px" y="0px"
	 width="69.052px" height="62.607px" viewBox="0 0 69.052 62.607" enable-background="new 0 0 69.052 62.607" xml:space="preserve">
<g>
	<g>
		<g>
			<path fill="#FFFFFF" d="M35.501,12.786c-0.438-0.648-1.513-0.648-1.951,0c-0.376,0.542-9.081,13.456-9.081,24.94
				c0,5.146,3.881,9.398,8.872,9.986v1.26c0,0.652,0.53,1.184,1.184,1.184s1.185-0.531,1.185-1.184v-1.26
				c4.984-0.588,8.872-4.84,8.872-9.986C44.582,26.242,35.872,13.328,35.501,12.786L35.501,12.786z M35.709,45.322v-4.148
				l3.199-3.199c0.463-0.468,0.463-1.213,0-1.674c-0.461-0.469-1.213-0.469-1.676,0l-1.523,1.529v-4.943l3.199-3.206
				c0.463-0.462,0.463-1.208,0-1.675c-0.461-0.463-1.213-0.463-1.676,0l-1.523,1.537v-6.621c0-0.652-0.531-1.186-1.185-1.186
				s-1.184,0.533-1.184,1.186v6.621l-1.531-1.537c-0.463-0.463-1.208-0.463-1.669,0c-0.463,0.467-0.463,1.213,0,1.675l3.2,3.206
				v4.943l-1.531-1.529c-0.463-0.469-1.208-0.469-1.669,0c-0.463,0.461-0.463,1.206,0,1.674l3.2,3.199v4.148
				c-3.679-0.572-6.503-3.754-6.503-7.596c0-8.543,5.418-18.339,7.687-22.065c2.265,3.727,7.688,13.522,7.688,22.065
				C42.213,41.568,39.382,44.75,35.709,45.322L35.709,45.322z M35.709,45.322"/>
		</g>
	</g>
	<circle fill="none" stroke="#FFFFFF" stroke-width="2" stroke-miterlimit="10" cx="34.526" cy="31.303" r="28.582"/>
</g>
</svg>
