<?xml version="1.0" encoding="utf-8"?>
<!-- Generator: Adobe Illustrator 16.0.0, SVG Export Plug-In . SVG Version: 6.00 Build 0)  -->
<!DOCTYPE svg PUBLIC "-//W3C//DTD SVG 1.1//EN" "http://www.w3.org/Graphics/SVG/1.1/DTD/svg11.dtd">
<svg version="1.1" id="Capa_1" xmlns="http://www.w3.org/2000/svg" xmlns:xlink="http://www.w3.org/1999/xlink" x="0px" y="0px"
	 width="44.551px" height="40.395px" viewBox="0 0 44.551 40.395" enable-background="new 0 0 44.551 40.395" xml:space="preserve">
<g>
	<circle fill="#E79542" cx="22.275" cy="20.198" r="8.083"/>
	<g>
		<path fill="#FFFFFF" d="M18.38,20.163c-0.255,0.255-0.255,0.663,0,0.917l3.439,3.44c0.125,0.124,0.293,0.191,0.457,0.191
			s0.332-0.062,0.456-0.191l3.439-3.44c0.255-0.254,0.255-0.662,0-0.917c-0.254-0.255-0.662-0.255-0.917,0l-2.33,2.33v-6.772
			c0-0.36-0.288-0.649-0.648-0.649c-0.36,0-0.648,0.289-0.648,0.649v6.772l-2.33-2.33C19.042,19.908,18.63,19.908,18.38,20.163
			L18.38,20.163z M18.38,20.163"/>
	</g>
</g>
</svg>
