<?xml version="1.0" encoding="utf-8"?>
<!-- Generator: Adobe Illustrator 16.0.0, SVG Export Plug-In . SVG Version: 6.00 Build 0)  -->
<!DOCTYPE svg PUBLIC "-//W3C//DTD SVG 1.1//EN" "http://www.w3.org/Graphics/SVG/1.1/DTD/svg11.dtd">
<svg version="1.1" id="Capa_1" xmlns="http://www.w3.org/2000/svg" xmlns:xlink="http://www.w3.org/1999/xlink" x="0px" y="0px"
	 width="44.551px" height="40.395px" viewBox="0 0 44.551 40.395" enable-background="new 0 0 44.551 40.395" xml:space="preserve">
<g>
	<circle fill="#E79542" cx="22.276" cy="19.328" r="14.338"/>
</g>
<g>
	<path fill="#FFFFFF" d="M27.446,17.57c0.217,0.221,0.568,0.221,0.784,0c0.218-0.218,0.218-0.568,0-0.785l-5.549-5.551
		c-0.104-0.104-0.247-0.163-0.394-0.163c-0.003,0-0.008,0.002-0.011,0.002c-0.005,0-0.009-0.002-0.015-0.002
		c-0.184,0-0.339,0.095-0.438,0.236l-5.502,5.499c-0.218,0.218-0.218,0.569,0,0.787c0.217,0.219,0.567,0.219,0.784,0l4.604-4.601
		v15.576c0,0.307,0.247,0.557,0.554,0.557c0.311,0,0.558-0.25,0.558-0.557V12.948L27.446,17.57z"/>
	<path fill="#FFFFFF" d="M18.372,24.42"/>
</g>
</svg>
