<?xml version="1.0" encoding="utf-8"?>
<!-- Generator: Adobe Illustrator 16.0.0, SVG Export Plug-In . SVG Version: 6.00 Build 0)  -->
<!DOCTYPE svg PUBLIC "-//W3C//DTD SVG 1.1//EN" "http://www.w3.org/Graphics/SVG/1.1/DTD/svg11.dtd">
<svg version="1.1" id="Capa_1" xmlns="http://www.w3.org/2000/svg" xmlns:xlink="http://www.w3.org/1999/xlink" x="0px" y="0px"
	 width="44.552px" height="40.394px" viewBox="0 0 44.552 40.394" enable-background="new 0 0 44.552 40.394" xml:space="preserve">
<g>
	<path fill="#FFFFFF" d="M34.693,22.309v8.156c0,0.508-0.107,0.974-0.322,1.402c-0.216,0.432-0.509,0.803-0.882,1.125
		c-0.372,0.329-0.801,0.58-1.295,0.766c-0.486,0.18-1.018,0.28-1.583,0.28H13.926c-0.551,0-1.074-0.101-1.568-0.28
		c-0.486-0.186-0.917-0.437-1.288-0.766c-0.372-0.322-0.666-0.693-0.889-1.125c-0.214-0.429-0.322-0.895-0.322-1.402v-8.156
		c0-0.487,0.108-0.945,0.322-1.389c0.223-0.437,0.517-0.816,0.889-1.132c0.371-0.314,0.802-0.573,1.288-0.767
		c0.494-0.186,1.018-0.286,1.577-0.286h16.676c0.552,0,1.081,0.101,1.575,0.286c0.494,0.193,0.931,0.452,1.303,0.767
		c0.373,0.315,0.666,0.695,0.882,1.132C34.593,21.364,34.693,21.822,34.693,22.309L34.693,22.309z M15.043,31.375v-8.607h2.048
		v-1.296h-5.52v1.262h1.767v8.642H15.043z M15.882,11.355l-2.285-4.999h1.991l1.132,3.737l1.137-3.737h1.983l-2.142,4.999v5.819
		h-1.816V11.355z M21.259,24.035h-1.711v4.597c0,0.33,0,0.588,0.014,0.768c0.015,0.179-0.014,0.293-0.072,0.344
		c-0.049,0.199-0.198,0.343-0.442,0.436c-0.238,0.094-0.416-0.035-0.545-0.4c-0.029-0.05-0.029-0.172-0.015-0.357
		c0.008-0.193,0.015-0.445,0.015-0.76l-0.036-4.626h-1.711l0.043,4.555c0,0.357-0.015,0.658-0.022,0.901
		c-0.013,0.244-0.006,0.424,0.022,0.545c0.021,0.201,0.044,0.415,0.071,0.645c0.021,0.229,0.135,0.415,0.352,0.551
		c0.2,0.123,0.429,0.187,0.694,0.187c0.272,0,0.53-0.05,0.787-0.136c0.25-0.086,0.488-0.207,0.701-0.358
		c0.216-0.15,0.373-0.321,0.473-0.494l-0.036,0.909l1.419,0.036V24.035z M19.689,12.121c0-0.683,0.065-1.247,0.188-1.69
		c0.151-0.458,0.396-0.789,0.729-0.987c0.338-0.252,0.76-0.375,1.283-0.375c0.457,0,0.837,0.08,1.152,0.224
		c0.309,0.121,0.566,0.344,0.759,0.651c0.151,0.222,0.266,0.48,0.337,0.766c0.072,0.308,0.107,0.725,0.107,1.247v1.947
		c0,0.709-0.035,1.217-0.107,1.524c-0.028,0.286-0.149,0.602-0.371,0.953c-0.224,0.309-0.467,0.508-0.725,0.609
		c-0.315,0.15-0.666,0.221-1.06,0.221c-0.407,0-0.779-0.057-1.117-0.186c-0.308-0.1-0.544-0.279-0.687-0.538
		c-0.15-0.2-0.273-0.479-0.373-0.837c-0.07-0.336-0.116-0.838-0.116-1.525V12.121z M21.215,15.148c0,0.201,0.079,0.373,0.229,0.53
		c0.144,0.15,0.323,0.229,0.531,0.229c0.2,0,0.378-0.07,0.536-0.221c0.149-0.144,0.23-0.33,0.23-0.538v-4.03
		c0-0.229-0.081-0.416-0.23-0.566c-0.158-0.157-0.336-0.235-0.529-0.235c-0.201,0-0.38,0.078-0.53,0.235
		c-0.157,0.15-0.236,0.337-0.236,0.566V15.148z M26.773,29.276v-3.809c0-0.73-0.258-1.253-0.773-1.561
		c-0.172-0.101-0.38-0.15-0.601-0.15c-0.409,0-0.875,0.193-1.411,0.572v-2.857h-1.713v9.832l1.419-0.036l0.106-0.616
		c0.459,0.387,0.875,0.623,1.239,0.709c0.365,0.086,0.674,0.051,0.932-0.1c0.251-0.158,0.451-0.408,0.594-0.767
		C26.702,30.143,26.773,29.735,26.773,29.276L26.773,29.276z M24.718,24.702c0.192,0,0.364,0.064,0.521,0.178
		c0.159,0.123,0.238,0.251,0.238,0.402v4.311c0,0.15-0.079,0.278-0.238,0.393c-0.157,0.107-0.329,0.164-0.521,0.164
		c-0.201,0-0.38-0.057-0.538-0.164c-0.15-0.114-0.229-0.242-0.229-0.393v-4.311c0-0.151,0.078-0.279,0.229-0.402
		C24.338,24.766,24.517,24.702,24.718,24.702L24.718,24.702z M25.512,16.416c-0.042-0.1-0.078-0.208-0.094-0.309
		c-0.014-0.105-0.027-0.207-0.058-0.309c-0.021-0.12-0.034-0.292-0.034-0.507V9.371h1.596v5.906c0,0.15,0.058,0.28,0.166,0.395
		c0.122,0.108,0.264,0.165,0.45,0.165c0.172,0,0.321-0.057,0.444-0.165c0.129-0.114,0.193-0.244,0.193-0.395V9.371h1.481v7.583
		h-1.89l0.029-0.617c-0.172,0.251-0.337,0.445-0.501,0.581c-0.194,0.122-0.409,0.186-0.652,0.186c-0.28,0-0.516-0.063-0.702-0.186
		C25.777,16.802,25.634,16.637,25.512,16.416L25.512,16.416z M32.165,28.797h-1.281v0.831c0,0.199-0.072,0.356-0.209,0.464
		c-0.143,0.115-0.313,0.165-0.515,0.165h-0.266c-0.193,0-0.357-0.05-0.486-0.165c-0.128-0.107-0.2-0.265-0.2-0.464v-1.763h2.957
		v-1.023c0-0.387-0.008-0.752-0.015-1.104c-0.014-0.357-0.042-0.629-0.093-0.83c-0.05-0.336-0.2-0.602-0.459-0.81
		c-0.25-0.2-0.551-0.343-0.888-0.415c-0.343-0.079-0.688-0.094-1.045-0.035c-0.351,0.049-0.659,0.164-0.925,0.352
		c-0.328,0.221-0.564,0.521-0.723,0.908c-0.143,0.387-0.221,0.917-0.221,1.604v2.285c0,0.966,0.257,1.653,0.766,2.062
		c0.473,0.379,0.966,0.572,1.482,0.572h0.158c0.579-0.029,1.095-0.279,1.539-0.737c0.335-0.337,0.501-0.78,0.501-1.318
		C32.229,29.198,32.208,29.004,32.165,28.797L32.165,28.797z M30.847,26.62h-1.632l0.035-0.908c0-0.201,0.071-0.366,0.222-0.494
		c0.15-0.129,0.321-0.201,0.537-0.201h0.078c0.223,0,0.409,0.066,0.566,0.186c0.151,0.129,0.229,0.294,0.229,0.51L30.847,26.62z
		 M30.847,26.62"/>
</g>
</svg>
