<?xml version="1.0" encoding="utf-8"?>
<!-- Generator: Adobe Illustrator 16.0.0, SVG Export Plug-In . SVG Version: 6.00 Build 0)  -->
<!DOCTYPE svg PUBLIC "-//W3C//DTD SVG 1.1//EN" "http://www.w3.org/Graphics/SVG/1.1/DTD/svg11.dtd">
<svg version="1.1" id="Capa_1" xmlns="http://www.w3.org/2000/svg" xmlns:xlink="http://www.w3.org/1999/xlink" x="0px" y="0px"
	 width="69.052px" height="62.607px" viewBox="0 0 69.052 62.607" enable-background="new 0 0 69.052 62.607" xml:space="preserve">
<g>
	<g>
		<path fill="#FFFFFF" d="M46.123,38.959c-0.712,0-1.373,0.208-1.949,0.548l-6.329-6.329c0.34-0.576,0.547-1.237,0.547-1.949
			c0-1.359-0.707-2.551-1.77-3.243l1.511-4.517c0.085,0.005,0.17,0.023,0.259,0.023c2.134,0,3.866-1.731,3.866-3.865
			c0-2.133-1.732-3.866-3.866-3.866c-2.133,0-3.865,1.733-3.865,3.866c0,1.359,0.703,2.55,1.766,3.243l-1.506,4.517
			c-0.085-0.005-0.17-0.022-0.26-0.022c-2.134,0-3.865,1.73-3.865,3.865c0,0.443,0.089,0.863,0.227,1.26l-4.848,3.233
			c-0.703-0.964-1.832-1.596-3.115-1.596c-2.134,0-3.866,1.737-3.866,3.865c0,2.134,1.732,3.87,3.866,3.87
			c2.133,0,3.865-1.736,3.865-3.87c0-0.141-0.023-0.278-0.042-0.42l5.211-3.474c0.685,0.613,1.576,0.996,2.567,0.996
			c0.713,0,1.373-0.208,1.949-0.548l6.33,6.329c-0.34,0.576-0.548,1.237-0.548,1.949c0,2.135,1.737,3.872,3.865,3.872
			c2.134,0,3.871-1.736,3.871-3.872C49.994,40.697,48.256,38.959,46.123,38.959L46.123,38.959z M22.924,39.927
			c-1.067,0-1.931-0.868-1.931-1.936c0-1.066,0.863-1.931,1.931-1.931c1.066,0,1.935,0.864,1.935,1.931
			C24.859,39.059,23.991,39.927,22.924,39.927L22.924,39.927z M34.526,33.159c-1.066,0-1.936-0.863-1.936-1.93
			c0-1.067,0.869-1.936,1.936-1.936s1.931,0.868,1.931,1.936C36.457,32.295,35.592,33.159,34.526,33.159L34.526,33.159z
			 M36.457,19.626c0-1.067,0.868-1.93,1.935-1.93c1.067,0,1.936,0.862,1.936,1.93s-0.868,1.937-1.936,1.937
			C37.325,21.563,36.457,20.694,36.457,19.626L36.457,19.626z M46.123,44.761c-1.066,0-1.93-0.869-1.93-1.936
			c0-1.066,0.863-1.93,1.93-1.93c1.067,0,1.936,0.863,1.936,1.93C48.058,43.892,47.19,44.761,46.123,44.761L46.123,44.761z
			 M46.123,44.761"/>
	</g>
	<circle fill="none" stroke="#FFFFFF" stroke-width="2" stroke-miterlimit="10" cx="34.526" cy="31.303" r="28.582"/>
</g>
</svg>
