<?xml version="1.0" encoding="utf-8"?>
<!-- Generator: Adobe Illustrator 16.0.0, SVG Export Plug-In . SVG Version: 6.00 Build 0)  -->
<!DOCTYPE svg PUBLIC "-//W3C//DTD SVG 1.1//EN" "http://www.w3.org/Graphics/SVG/1.1/DTD/svg11.dtd">
<svg version="1.1" id="Capa_1" xmlns="http://www.w3.org/2000/svg" xmlns:xlink="http://www.w3.org/1999/xlink" x="0px" y="0px"
	 width="69.052px" height="62.607px" viewBox="0 0 69.052 62.607" enable-background="new 0 0 69.052 62.607" xml:space="preserve">
<g>
	<g>
		<path fill="#FFFFFF" d="M47.014,23.9c1.273,0,2.312-1.034,2.312-2.312v-2.772c0-1.274-1.039-2.312-2.312-2.312h-2.778
			c-1.273,0-2.312,1.038-2.312,2.312v0.46H27.122v-0.46c0-1.274-1.033-2.312-2.312-2.312h-2.771c-1.275,0-2.312,1.038-2.312,2.312
			v2.772c0,1.279,1.037,2.312,2.312,2.312h0.459v14.802h-0.459c-1.275,0-2.312,1.038-2.312,2.312v2.777
			c0,1.274,1.037,2.313,2.312,2.313h2.771c1.279,0,2.312-1.039,2.312-2.313v-0.465h14.802v0.465c0,1.274,1.039,2.313,2.312,2.313
			h2.778c1.273,0,2.312-1.039,2.312-2.313v-2.777c0-1.274-1.039-2.312-2.312-2.312h-0.466V23.9H47.014z M22.038,22.054
			c-0.258,0-0.461-0.208-0.461-0.467v-2.772c0-0.253,0.203-0.46,0.461-0.46h2.771c0.259,0,0.467,0.207,0.467,0.46v2.772
			c0,0.259-0.208,0.467-0.467,0.467H22.038z M25.276,43.792c0,0.253-0.208,0.461-0.467,0.461h-2.771
			c-0.258,0-0.461-0.208-0.461-0.461v-2.777c0-0.254,0.203-0.461,0.461-0.461h2.771c0.259,0,0.467,0.207,0.467,0.461V43.792z
			 M41.923,41.014v0.465H27.122v-0.465c0-1.274-1.033-2.312-2.312-2.312H24.35V23.9h0.459c1.279,0,2.312-1.034,2.312-2.312v-0.46
			h14.802v0.46c0,1.279,1.039,2.312,2.312,2.312h0.466v14.802h-0.466C42.962,38.702,41.923,39.74,41.923,41.014L41.923,41.014z
			 M47.014,40.553c0.252,0,0.46,0.207,0.46,0.461v2.777c0,0.253-0.208,0.461-0.46,0.461h-2.778c-0.253,0-0.46-0.208-0.46-0.461
			v-2.777c0-0.254,0.207-0.461,0.46-0.461H47.014z M44.236,22.054c-0.253,0-0.46-0.208-0.46-0.467v-2.772
			c0-0.253,0.207-0.46,0.46-0.46h2.778c0.252,0,0.46,0.207,0.46,0.46v2.772c0,0.259-0.208,0.467-0.46,0.467H44.236z M44.236,22.054"
			/>
	</g>
	<circle fill="none" stroke="#FFFFFF" stroke-width="2" stroke-miterlimit="10" cx="34.526" cy="31.303" r="28.582"/>
</g>
</svg>
