<?xml version="1.0" encoding="utf-8"?>
<!-- Generator: Adobe Illustrator 16.0.0, SVG Export Plug-In . SVG Version: 6.00 Build 0)  -->
<!DOCTYPE svg PUBLIC "-//W3C//DTD SVG 1.1//EN" "http://www.w3.org/Graphics/SVG/1.1/DTD/svg11.dtd">
<svg version="1.1" id="Capa_1" xmlns="http://www.w3.org/2000/svg" xmlns:xlink="http://www.w3.org/1999/xlink" x="0px" y="0px"
	 width="69.052px" height="62.607px" viewBox="0 0 69.052 62.607" enable-background="new 0 0 69.052 62.607" xml:space="preserve">
<g>
	<g>
		<g>
			<path fill="#FFFFFF" d="M49.452,34.025c-1.407-0.188-2.474-1.384-2.474-2.796c0-1.414,1.066-2.615,2.474-2.792
				c0.285-0.038,0.536-0.192,0.694-0.425c0.154-0.236,0.208-0.526,0.14-0.8c-0.386-1.511-0.983-2.952-1.778-4.288
				c-0.146-0.246-0.386-0.414-0.662-0.468c-0.278-0.053-0.563,0.015-0.79,0.188c-1.09,0.845-2.749,0.748-3.723-0.226
				c-1.003-0.999-1.1-2.6-0.227-3.724c0.174-0.221,0.241-0.511,0.188-0.79c-0.054-0.275-0.223-0.516-0.468-0.661
				c-1.336-0.795-2.778-1.393-4.287-1.779c-0.275-0.067-0.565-0.02-0.801,0.14c-0.231,0.164-0.386,0.415-0.425,0.695
				c-0.183,1.408-1.384,2.469-2.792,2.469c-1.412,0-2.613-1.062-2.796-2.469c-0.034-0.28-0.188-0.536-0.425-0.695
				c-0.231-0.155-0.521-0.207-0.801-0.14c-1.504,0.387-2.946,0.984-4.282,1.779c-0.241,0.146-0.41,0.386-0.463,0.665
				c-0.053,0.275,0.015,0.565,0.188,0.786c0.867,1.128,0.771,2.73-0.228,3.729c-0.969,0.969-2.632,1.065-3.722,0.226
				c-0.228-0.172-0.512-0.24-0.791-0.188c-0.276,0.053-0.517,0.223-0.666,0.463c-0.796,1.341-1.394,2.783-1.775,4.288
				c-0.066,0.273-0.012,0.563,0.147,0.8c0.154,0.232,0.409,0.39,0.688,0.425c1.409,0.182,2.47,1.383,2.47,2.796
				c0,1.408-1.061,2.609-2.47,2.792c-0.278,0.034-0.533,0.188-0.688,0.419c-0.159,0.236-0.214,0.527-0.147,0.801
				c0.382,1.51,0.979,2.951,1.775,4.287c0.146,0.246,0.39,0.415,0.666,0.468c0.274,0.053,0.563-0.015,0.791-0.187
				c1.09-0.841,2.753-0.744,3.722,0.225c0.998,1,1.095,2.601,0.228,3.729c-0.174,0.222-0.241,0.512-0.188,0.788
				c0.053,0.273,0.227,0.518,0.468,0.664c1.336,0.795,2.777,1.389,4.287,1.773c0.082,0.021,0.164,0.031,0.241,0.031
				c0.197,0,0.39-0.059,0.555-0.17c0.235-0.158,0.39-0.41,0.424-0.689c0.183-1.412,1.385-2.475,2.797-2.475
				c1.408,0,2.614,1.063,2.792,2.475c0.038,0.279,0.188,0.531,0.424,0.689c0.237,0.16,0.526,0.209,0.801,0.139
				c1.51-0.385,2.951-0.979,4.288-1.773c0.24-0.146,0.409-0.387,0.463-0.664c0.058-0.276-0.015-0.566-0.185-0.788
				c-0.867-1.128-0.771-2.729,0.228-3.723c0.975-0.975,2.633-1.071,3.723-0.226c0.222,0.167,0.511,0.234,0.785,0.182
				c0.28-0.053,0.521-0.222,0.666-0.463c0.796-1.341,1.394-2.782,1.774-4.292c0.072-0.269,0.02-0.56-0.14-0.795
				C49.988,34.213,49.737,34.059,49.452,34.025L49.452,34.025z M47.282,37.661c-1.779-0.79-3.964-0.405-5.348,0.979
				c-1.423,1.424-1.77,3.564-0.979,5.349c-0.632,0.318-1.282,0.587-1.952,0.81c-0.7-1.823-2.46-3.09-4.476-3.09
				s-3.775,1.268-4.475,3.09c-0.67-0.223-1.326-0.492-1.958-0.81c0.795-1.779,0.448-3.925-0.979-5.349
				c-0.902-0.901-2.103-1.396-3.376-1.396c-0.681,0-1.355,0.145-1.973,0.418c-0.317-0.631-0.588-1.286-0.81-1.957
				c1.823-0.7,3.091-2.46,3.091-4.475c0-2.011-1.268-3.776-3.091-4.475c0.222-0.67,0.492-1.328,0.81-1.953
				c0.617,0.273,1.292,0.418,1.973,0.418c1.278,0,2.474-0.496,3.38-1.397c1.423-1.423,1.77-3.568,0.975-5.348
				c0.632-0.318,1.288-0.594,1.958-0.811c0.699,1.818,2.459,3.086,4.475,3.086s3.775-1.268,4.476-3.086
				c0.67,0.222,1.326,0.493,1.952,0.811c-0.795,1.779-0.443,3.925,0.979,5.348c0.906,0.901,2.102,1.397,3.381,1.397
				c0.68,0,1.35-0.145,1.967-0.418c0.323,0.63,0.594,1.282,0.814,1.953c-1.822,0.699-3.09,2.464-3.09,4.475
				c0,2.015,1.268,3.774,3.09,4.475C47.875,36.375,47.605,37.03,47.282,37.661L47.282,37.661z M34.522,22.659
				c-4.721,0-8.568,3.843-8.568,8.57c0,4.726,3.848,8.569,8.568,8.569c4.727,0,8.569-3.844,8.569-8.569
				C43.091,26.502,39.249,22.659,34.522,22.659L34.522,22.659z M34.522,37.825c-3.636,0-6.592-2.96-6.592-6.596
				c0-3.637,2.956-6.598,6.592-6.598c3.641,0,6.598,2.961,6.598,6.598C41.12,34.865,38.163,37.825,34.522,37.825L34.522,37.825z
				 M34.522,26.546c-2.58,0-4.682,2.103-4.682,4.683c0,2.579,2.102,4.683,4.682,4.683c2.585,0,4.688-2.104,4.688-4.683
				C39.209,28.649,37.107,26.546,34.522,26.546L34.522,26.546z M34.522,33.076c-1.018,0-1.847-0.824-1.847-1.847
				c0-1.019,0.829-1.849,1.847-1.849c1.022,0,1.852,0.83,1.852,1.849C36.374,32.251,35.544,33.076,34.522,33.076L34.522,33.076z
				 M34.522,33.076"/>
		</g>
	</g>
	<circle fill="none" stroke="#FFFFFF" stroke-width="2" stroke-miterlimit="10" cx="34.526" cy="31.303" r="28.582"/>
</g>
</svg>
