<?xml version="1.0" encoding="utf-8"?>
<!-- Generator: Adobe Illustrator 16.0.0, SVG Export Plug-In . SVG Version: 6.00 Build 0)  -->
<!DOCTYPE svg PUBLIC "-//W3C//DTD SVG 1.1//EN" "http://www.w3.org/Graphics/SVG/1.1/DTD/svg11.dtd">
<svg version="1.1" id="Capa_1" xmlns="http://www.w3.org/2000/svg" xmlns:xlink="http://www.w3.org/1999/xlink" x="0px" y="0px"
	 width="44.552px" height="40.394px" viewBox="0 0 44.552 40.394" enable-background="new 0 0 44.552 40.394" xml:space="preserve">
<g>
	<g>
		<circle fill="none" stroke="#FFFFFF" cx="22.276" cy="20.197" r="11.966"/>
	</g>
	<g>
		<path fill="#FFFFFF" d="M17.106,20.412c-0.217-0.221-0.568-0.221-0.784,0c-0.218,0.218-0.218,0.568,0,0.785l5.548,5.551
			c0.105,0.104,0.247,0.163,0.394,0.163c0.003,0,0.008-0.002,0.011-0.002c0.005,0,0.008,0.002,0.014,0.002
			c0.184,0,0.339-0.095,0.439-0.236l5.502-5.499c0.218-0.218,0.218-0.57,0-0.788c-0.217-0.218-0.567-0.218-0.784,0l-4.604,4.601
			V13.215c0-0.307-0.247-0.557-0.554-0.557c-0.31,0-0.557,0.25-0.557,0.557v11.819L17.106,20.412z M17.106,20.412"/>
		<path fill="#FFFFFF" d="M26.18,13.561"/>
	</g>
</g>
</svg>
