<?xml version="1.0" encoding="utf-8"?>
<!-- Generator: Adobe Illustrator 16.0.0, SVG Export Plug-In . SVG Version: 6.00 Build 0)  -->
<!DOCTYPE svg PUBLIC "-//W3C//DTD SVG 1.1//EN" "http://www.w3.org/Graphics/SVG/1.1/DTD/svg11.dtd">
<svg version="1.1" id="Capa_1" xmlns="http://www.w3.org/2000/svg" xmlns:xlink="http://www.w3.org/1999/xlink" x="0px" y="0px"
	 width="44.551px" height="40.395px" viewBox="0 0 44.551 40.395" enable-background="new 0 0 44.551 40.395" xml:space="preserve">
<g>
	<g>
		<path fill="#FFFFFF" d="M22.205,25.367c-0.221,0.217-0.221,0.568,0,0.784c0.218,0.218,0.568,0.218,0.784,0l5.55-5.549
			c0.104-0.104,0.163-0.247,0.163-0.394c0-0.003-0.002-0.008-0.002-0.011c0-0.005,0.002-0.009,0.002-0.015
			c0-0.184-0.095-0.339-0.236-0.438l-5.498-5.502c-0.217-0.218-0.568-0.218-0.786,0c-0.219,0.217-0.219,0.567,0,0.784l4.599,4.604
			H16.206c-0.307,0-0.557,0.247-0.557,0.554c0,0.311,0.25,0.558,0.557,0.558h10.619L22.205,25.367z"/>
		<path fill="#FFFFFF" d="M15.354,16.293"/>
	</g>
	<g>
		<circle fill="none" stroke="#FFFFFF" cx="22.275" cy="19.956" r="9.63"/>
	</g>
</g>
</svg>
