<?xml version="1.0" encoding="utf-8"?>
<!-- Generator: Adobe Illustrator 16.0.0, SVG Export Plug-In . SVG Version: 6.00 Build 0)  -->
<!DOCTYPE svg PUBLIC "-//W3C//DTD SVG 1.1//EN" "http://www.w3.org/Graphics/SVG/1.1/DTD/svg11.dtd">
<svg version="1.1" id="Capa_1" xmlns="http://www.w3.org/2000/svg" xmlns:xlink="http://www.w3.org/1999/xlink" x="0px" y="0px"
	 width="19.5px" height="19.5px" viewBox="0 0 19.5 19.5" enable-background="new 0 0 19.5 19.5" xml:space="preserve">
<g>
	<path fill="#FFFFFF" d="M9.75,0C4.374,0,0,4.374,0,9.75s4.374,9.75,9.75,9.75s9.75-4.374,9.75-9.75S15.126,0,9.75,0L9.75,0z
		 M9.75,18.525c-4.839,0-8.775-3.937-8.775-8.775S4.911,0.975,9.75,0.975c4.839,0,8.775,3.937,8.775,8.775
		S14.589,18.525,9.75,18.525L9.75,18.525z M9.75,18.525"/>
	<path fill="#FFFFFF" d="M14.33,9.404l-2.739-2.739c-0.19-0.191-0.497-0.191-0.688,0c-0.19,0.191-0.19,0.497,0,0.688l1.908,1.909
		H5.515c-0.271,0-0.489,0.218-0.489,0.489s0.218,0.489,0.489,0.489h7.292l-1.908,1.908c-0.191,0.191-0.191,0.497,0,0.688
		c0.19,0.19,0.497,0.19,0.688,0l2.739-2.74C14.422,10,14.47,9.877,14.47,9.75C14.47,9.623,14.426,9.5,14.33,9.404L14.33,9.404z
		 M14.33,9.404"/>
</g>
</svg>
