<?xml version="1.0" encoding="utf-8"?>
<!-- Generator: Adobe Illustrator 16.0.0, SVG Export Plug-In . SVG Version: 6.00 Build 0)  -->
<!DOCTYPE svg PUBLIC "-//W3C//DTD SVG 1.1//EN" "http://www.w3.org/Graphics/SVG/1.1/DTD/svg11.dtd">
<svg version="1.1" id="Capa_1" xmlns="http://www.w3.org/2000/svg" xmlns:xlink="http://www.w3.org/1999/xlink" x="0px" y="0px"
	 width="44.552px" height="40.394px" viewBox="0 0 44.552 40.394" enable-background="new 0 0 44.552 40.394" xml:space="preserve">
<g>
	<path fill="#FFFFFF" d="M30.815,15.049c-0.63,0.277-1.305,0.467-2.014,0.551c0.723-0.434,1.278-1.12,1.541-1.938
		c-0.679,0.401-1.427,0.693-2.226,0.851c-0.641-0.68-1.548-1.107-2.557-1.107c-1.936,0-3.502,1.568-3.502,3.503
		c0,0.275,0.03,0.542,0.091,0.8c-2.912-0.148-5.493-1.543-7.222-3.661c-0.302,0.516-0.475,1.119-0.475,1.76
		c0,1.215,0.619,2.288,1.559,2.916c-0.573-0.019-1.114-0.175-1.587-0.438c0,0.015,0,0.029,0,0.044c0,1.697,1.207,3.112,2.811,3.435
		c-0.295,0.08-0.604,0.123-0.922,0.123c-0.229,0-0.446-0.021-0.66-0.062c0.446,1.393,1.739,2.404,3.271,2.434
		c-1.198,0.938-2.709,1.499-4.351,1.499c-0.282,0-0.561-0.017-0.834-0.049c1.549,0.993,3.39,1.573,5.368,1.573
		c6.443,0,9.968-5.336,9.968-9.967c0-0.152-0.005-0.302-0.011-0.454C29.75,16.368,30.342,15.751,30.815,15.049z"/>
	<circle fill="none" stroke="#FFFFFF" cx="22.276" cy="20.197" r="13.202"/>
</g>
</svg>
