<svg xmlns="http://www.w3.org/2000/svg" viewBox="0 0 27 24"><defs><style>.cls-1{fill:#e79542;}.cls-2{fill:#fff;}</style></defs><title>Asset 3</title><g id="Layer_2" data-name="Layer 2"><g id="txt"><rect class="cls-1" width="27" height="24"/><path class="cls-2" d="M22.08,6.81a7.08,7.08,0,0,1-2,.55,3.52,3.52,0,0,0,1.54-1.94,7.1,7.1,0,0,1-2.23.85,3.51,3.51,0,0,0-6.08,2.4,3.56,3.56,0,0,0,.09.8A10,10,0,0,1,6.15,5.8a3.52,3.52,0,0,0,1.09,4.69,3.49,3.49,0,0,1-1.59-.44v0a3.52,3.52,0,0,0,2.82,3.45,3.53,3.53,0,0,1-1.59.06A3.52,3.52,0,0,0,10.15,16a7.05,7.05,0,0,1-4.36,1.5,7.52,7.52,0,0,1-.84,0A10,10,0,0,0,20.34,9.08c0-.15,0-.3,0-.46A7.2,7.2,0,0,0,22.08,6.81Z"/></g></g></svg>