<?xml version="1.0" encoding="utf-8"?>
<!-- Generator: Adobe Illustrator 16.0.0, SVG Export Plug-In . SVG Version: 6.00 Build 0)  -->
<!DOCTYPE svg PUBLIC "-//W3C//DTD SVG 1.1//EN" "http://www.w3.org/Graphics/SVG/1.1/DTD/svg11.dtd">
<svg version="1.1" id="Capa_1" xmlns="http://www.w3.org/2000/svg" xmlns:xlink="http://www.w3.org/1999/xlink" x="0px" y="0px"
	 width="44.551px" height="40.395px" viewBox="0 0 44.551 40.395" enable-background="new 0 0 44.551 40.395" xml:space="preserve">
<g>
	<path fill="#3B3F48" d="M37.567,20.197c0-8.43-6.861-15.291-15.291-15.291c-8.432,0-15.291,6.861-15.291,15.291
		c0,4.453,1.914,8.469,4.961,11.264l-0.014,0.016l0.496,0.418c0.031,0.027,0.068,0.047,0.1,0.074
		c0.264,0.219,0.537,0.426,0.816,0.625c0.088,0.064,0.178,0.131,0.27,0.195c0.299,0.203,0.604,0.4,0.916,0.582
		c0.068,0.041,0.137,0.078,0.203,0.119c0.34,0.191,0.689,0.379,1.045,0.543c0.027,0.014,0.051,0.023,0.078,0.039
		c1.164,0.537,2.404,0.932,3.699,1.168c0.035,0.006,0.068,0.012,0.102,0.018c0.402,0.07,0.811,0.125,1.223,0.162
		c0.049,0.006,0.1,0.01,0.148,0.014c0.41,0.033,0.826,0.055,1.248,0.055c0.416,0,0.826-0.021,1.234-0.055
		c0.051-0.004,0.104-0.008,0.156-0.01c0.408-0.039,0.811-0.094,1.209-0.16c0.035-0.006,0.072-0.014,0.105-0.02
		c1.277-0.229,2.498-0.615,3.645-1.143c0.043-0.02,0.088-0.039,0.129-0.057c0.344-0.164,0.678-0.338,1.006-0.523
		c0.082-0.045,0.162-0.092,0.244-0.141c0.299-0.176,0.596-0.359,0.879-0.555c0.105-0.068,0.205-0.145,0.305-0.219
		c0.246-0.174,0.486-0.355,0.717-0.545c0.053-0.041,0.109-0.078,0.16-0.121l0.508-0.424l-0.016-0.014
		C35.633,28.707,37.567,24.674,37.567,20.197L37.567,20.197z M8.096,20.197c0-7.819,6.359-14.178,14.18-14.178
		c7.818,0,14.178,6.358,14.178,14.178c0,4.213-1.85,8.002-4.777,10.6c-0.162-0.111-0.324-0.215-0.496-0.299l-4.707-2.354
		c-0.422-0.213-0.686-0.637-0.686-1.107V25.39c0.109-0.133,0.227-0.285,0.342-0.453c0.613-0.859,1.102-1.818,1.457-2.848
		c0.705-0.334,1.158-1.038,1.158-1.831v-1.972c0-0.48-0.176-0.946-0.49-1.316v-2.595c0.027-0.288,0.129-1.917-1.049-3.261
		c-1.023-1.168-2.684-1.762-4.93-1.762c-2.248,0-3.906,0.594-4.932,1.762c-1.178,1.344-1.076,2.973-1.049,3.261v2.595
		c-0.314,0.367-0.49,0.836-0.49,1.316v1.972c0,0.614,0.273,1.185,0.744,1.571c0.451,1.764,1.375,3.1,1.721,3.551v1.609
		c0,0.455-0.25,0.871-0.646,1.088l-4.398,2.398c-0.139,0.076-0.279,0.166-0.418,0.266C9.918,28.144,8.096,24.381,8.096,20.197
		L8.096,20.197z M30.594,31.668c-0.195,0.141-0.393,0.279-0.594,0.41c-0.094,0.061-0.186,0.119-0.279,0.18
		c-0.262,0.162-0.527,0.314-0.803,0.461c-0.061,0.029-0.119,0.061-0.178,0.094c-0.629,0.32-1.277,0.596-1.941,0.818
		c-0.023,0.008-0.047,0.016-0.07,0.025c-0.35,0.117-0.701,0.217-1.061,0.307h-0.002c-0.361,0.088-0.725,0.162-1.092,0.225
		c-0.012,0-0.021,0.004-0.029,0.006c-0.346,0.055-0.695,0.096-1.043,0.127c-0.062,0.006-0.123,0.01-0.188,0.014
		c-0.346,0.025-0.691,0.041-1.039,0.041c-0.354,0-0.703-0.016-1.055-0.043c-0.059-0.002-0.121-0.008-0.182-0.014
		c-0.354-0.029-0.703-0.072-1.051-0.127l-0.047-0.01c-0.734-0.125-1.457-0.303-2.164-0.539c-0.02-0.01-0.043-0.018-0.064-0.025
		c-0.35-0.115-0.693-0.248-1.033-0.396c0,0-0.006,0-0.01-0.002c-0.32-0.139-0.635-0.291-0.947-0.453
		c-0.041-0.021-0.08-0.041-0.121-0.062c-0.285-0.152-0.562-0.316-0.836-0.486c-0.082-0.051-0.164-0.104-0.242-0.158
		c-0.252-0.162-0.502-0.336-0.744-0.518c-0.025-0.02-0.049-0.037-0.072-0.059l0.051-0.029l4.398-2.396
		c0.754-0.412,1.225-1.207,1.225-2.066v-2.004l-0.129-0.154c-0.014-0.014-1.213-1.475-1.668-3.455l-0.049-0.221l-0.191-0.122
		c-0.27-0.174-0.43-0.463-0.43-0.775v-1.972c0-0.257,0.113-0.5,0.311-0.68l0.186-0.166v-3.094l-0.008-0.074
		c0-0.014-0.164-1.353,0.779-2.426c0.803-0.917,2.182-1.382,4.094-1.382c1.904,0,3.279,0.463,4.082,1.374
		c0.941,1.06,0.789,2.423,0.789,2.435l-0.008,3.171l0.186,0.165c0.199,0.179,0.311,0.421,0.311,0.678v1.972
		c0,0.397-0.271,0.756-0.658,0.877L26.7,21.22l-0.088,0.277c-0.328,1.018-0.797,1.959-1.389,2.797
		c-0.146,0.205-0.287,0.389-0.408,0.529l-0.137,0.154v2.059c0,0.895,0.498,1.701,1.297,2.104l4.707,2.354
		c0.031,0.014,0.061,0.029,0.092,0.047C30.713,31.584,30.653,31.625,30.594,31.668L30.594,31.668z M30.594,31.668"/>
</g>
</svg>
